<svg xmlns="http://www.w3.org/2000/svg" viewBox="0 0 1920 3390"><defs><style>.cls-1{fill:#eaeaea;}.cls-2,.cls-3,.cls-4{fill:none;stroke:#494949;stroke-miterlimit:10;}.cls-2,.cls-4{stroke-width:10px;}.cls-3,.cls-4{stroke-linecap:round;}.cls-3{stroke-width:9px;}</style></defs><title>gfdsgfd</title><g id="Layer_2" data-name="Layer 2"><rect class="cls-1" x="-107" y="-81" width="2117" height="3493"/></g><g id="Layer_1" data-name="Layer 1"><circle class="cls-2" cx="231.5" cy="212.5" r="87"/><circle class="cls-2" cx="325.5" cy="343.5" r="43.5"/><circle class="cls-2" cx="1688.03" cy="279.01" r="87"/><circle class="cls-2" cx="1660.53" cy="464.51" r="43.5"/><line class="cls-3" x1="813.21" y1="1422.21" x2="1716.61" y2="900.63"/><line class="cls-4" x1="948.71" y1="1385.23" x2="1626.19" y2="994.28"/><line class="cls-4" x1="1645.71" y1="984.29" x2="1730.97" y2="933.9"/><line class="cls-4" x1="807.77" y1="1466.43" x2="915.02" y2="1404.67"/><line class="cls-4" x1="939.28" y1="1432.46" x2="1731.72" y2="974.7"/><line class="cls-4" x1="1765.41" y1="955.25" x2="1830.31" y2="917.73"/><line class="cls-4" x1="1080.98" y1="1392.06" x2="1823.08" y2="964.56"/><line class="cls-4" x1="971.25" y1="1455.19" x2="1044.81" y2="1412.87"/><line class="cls-4" x1="1049.28" y1="1451.62" x2="1908.81" y2="955.92"/><polyline class="cls-4" points="-150.5 1434.06 -111.87 1289.9 33.09 1328.74 71.94 1183.78 216.9 1222.62 255.96 1076.85 400.92 1115.7 438.9 973.95"/><polyline class="cls-2" points="1642.99 761.87 1553.05 751.22 1563.76 660.78 1473.33 650.07 1484.04 559.63 1393.1 548.86 1403.81 458.42 1315.38 447.95"/><rect class="cls-4" x="288" y="618" width="161" height="161" transform="translate(344.58 -90.88) rotate(26.08)"/><line class="cls-4" x1="7.96" y1="1140" x2="616" y2="789"/><circle class="cls-4" cx="593" cy="1124" r="54"/><circle class="cls-2" cx="1562" cy="387" r="54"/><polygon class="cls-2" points="1704 699 1798 531 1853 771 1704 699"/><polygon class="cls-2" points="643.52 304.91 859.77 125.14 879.18 401.16 643.52 304.91"/><polygon class="cls-2" points="976.42 418.64 936.63 267.52 1080.21 322.53 976.42 418.64"/><circle class="cls-2" cx="1238.38" cy="3177" r="87"/><circle class="cls-2" cx="1228.3" cy="3016.08" r="43.5"/><circle class="cls-2" cx="39.51" cy="2347.17" r="87"/><circle class="cls-2" cx="161.32" cy="2204.59" r="43.5"/><line class="cls-3" x1="1387.88" y1="1843.05" x2="345.41" y2="1805.27"/><line class="cls-4" x1="1253.42" y1="1802.43" x2="471.75" y2="1773.92"/><line class="cls-4" x1="449.91" y1="1772.02" x2="350.9" y2="1769.45"/><line class="cls-4" x1="1415.97" y1="1808.47" x2="1292.29" y2="1803.84"/><line class="cls-4" x1="1286.49" y1="1767.41" x2="371.93" y2="1734.48"/><line class="cls-4" x1="333.06" y1="1733.07" x2="258.14" y2="1730.4"/><line class="cls-4" x1="1144.98" y1="1726.4" x2="289.13" y2="1694.56"/><line class="cls-4" x1="1271.48" y1="1731.18" x2="1186.67" y2="1727.97"/><line class="cls-4" x1="1203.46" y1="1692.77" x2="211.9" y2="1656.35"/><polyline class="cls-4" points="1758.85 2288.15 1649.56 2389.79 1547.36 2279.89 1437.46 2382.1 1335.25 2272.21 1224.75 2374.98 1122.54 2265.09 1015.08 2365.03"/><rect class="cls-4" x="1299.88" y="2611.94" width="161" height="161" transform="matrix(-0.53, -0.85, 0.85, -0.53, -178.46, 5285.65)"/><rect class="cls-4" x="1432.02" y="843.74" width="94.32" height="94.32" transform="translate(-31.95 1726.45) rotate(-60)"/><line class="cls-4" x1="1920.34" y1="2509.8" x2="637.97" y2="2463.79"/><circle class="cls-4" cx="1224.37" cy="2202.27" r="54"/><circle class="cls-2" cx="203.65" cy="2322.59" r="54"/><polygon class="cls-2" points="249.02 1982.81 80.15 2075.25 161 1842.68 249.02 1982.81"/><polygon class="cls-2" points="938.33 2879.9 659.62 2917.39 789.76 2673.2 938.33 2879.9"/><polygon class="cls-2" points="716.64 2606.75 670.11 2755.93 577.66 2633.07 716.64 2606.75"/></g></svg>