<svg id="Layer_1" data-name="Layer 1" xmlns="http://www.w3.org/2000/svg" viewBox="0 0 2141.9 901.9"><path d="M60.4,189.9,31,164.4q86.3-18.6,139.6-44.6t75-64.2a88.4,88.4,0,0,0,11.7,18.7L275,90.9c18.9,17,44.1,31.7,75.4,44.1s68.9,22.2,112.7,29.4l-4.9,3.9,47,47-52.9,45.1v91.1l-6.9,6.9c-17,0-31.8,3.4-44.5,10.2s-25.7,17.8-38.7,32.9l43.1,15.6V422l46,46.1V686.5l10.8,8.9c-1.3.6-2.1.8-2.5.5s-1.1-.2-2.4.4l47,46.1Q419,757.1,366.1,784t-72.5,63.2l-47-47a5.3,5.3,0,0,0-2,3.9,38.8,38.8,0,0,0-6.9-9.8q-27.4-16.6-65.1-28.9c-25.2-8.2-54.1-15.8-86.7-23L40.8,697.3c-1.3,0-4.5-.6-9.8-1.9l53.9-48V558.2a110.7,110.7,0,0,0,56.8-17.1q25.5-16.2,52-53.4l-56.9-20.6L91.8,423l-6.9-2.9,1-204.8Zm336,112.6v-94l44.1-38.2q-79.3-13.8-127.8-38.2T245.6,75.2q-18.6,32.4-67.1,55.4c-32.4,15.3-74.6,28.6-126.9,39.7l44.1,37.2-1,205.7,198.9,72.5v145c0,9.8-5.1,16.3-15.2,19.6a108.6,108.6,0,0,1-33.8,4.9c-12.4,0-23.5-1.6-33.3-4.9s-14.7-9.8-14.7-19.6V502.4c-15,22.8-30.4,39.3-46,49.4S116.3,567.4,94.7,568v84.3L51.6,689.5q157.8,32.3,193,95,18.6-32.2,67.1-56.8t127.9-38.2l-44.1-37.2V424q-47.1-16.7-99.5-35.8t-99.4-36.7l1-116.6c0-10.4,4.9-18.1,14.7-23s20.9-7.3,33.3-7.3a76.8,76.8,0,0,1,33.8,7.3c10.1,4.9,15.2,12.6,15.2,23V364.2q22.5-32.2,45-47C354.6,307.4,373.6,302.5,396.4,302.5Zm-9.7-9.8c-21,0-37.4,3.1-49.5,9.3s-23,16.5-32.8,30.9v-98c0-13.7-6.1-23.8-18.2-30.3s-25.6-9.8-40.6-9.8a81.4,81.4,0,0,0-39.7,9.8c-12.1,6.5-18.1,16.6-18.1,30.3l-1,123.5,198.9,72.5V656.2L418,683.6Q276,710,244.6,764.9q-31.3-53.9-172.4-81.3l32.3-27.4V577.8c20.2-.6,36.7-4.1,49.5-10.3s23.6-16.5,32.8-30.8v94c0,13.7,6,22.9,18.1,27.4a110.7,110.7,0,0,0,39.7,6.9c15,0,28.6-2.3,40.7-6.9s18.1-13.7,18.1-27.4V490.6l50.9,6.9-50.9-19.6L104.5,406.4l1-202.8L73.2,176.1q141-27.3,172.4-81.3Q277,149.7,419,176.1l-32.3,27.5v89.1ZM252.4,645.4a99.8,99.8,0,0,0,22.1-3.9q9.3-3,9.3-10.8V521l-61.7-23.5,30.3,30.3Zm0-283.1L284.8,374V261.4c-9.2,1.3-16.7,3.7-22.6,7.3s-8.8,8.7-8.8,15.2Z"/><path d="M792.2,101.7c3.9,9.8,7.9,19.1,11.8,27.9a167.5,167.5,0,0,0,13.7,25q9.8,8.8,26.4,18.6l-2.9,2.9,47,47.1L851,259.4V698.3l37.2,37.2c-23.5,15.1-42.8,32.2-57.8,51.5s-28.4,43.2-40.1,72l-47.1-47.1-1.9,5.9q-21.6-54.9-53.9-93l-19.6-18.7-15.7-13.7-.5,5.9,36.2,36.2a232.1,232.1,0,0,0-51.2,49q-22.8,29.4-39.3,76.4l-47.1-47a14.8,14.8,0,0,0-1.9,5.9c-15.7-35.3-32-63.3-49-84.3l-38.2-39.1-13.7-9.8,37.2-37.3V211.4l-38.2-36.2a253.4,253.4,0,0,0,57.8-53.9Q528.7,90,548.3,40l4.9,14.7,44.1,43.1a342.5,342.5,0,0,0,15.1,36.7,312.8,312.8,0,0,0,17.2,30.9l13.7,9.8-2,1.9,42.2,42.1v-7.8l-17.7-16.6-19.6-19.6a255.3,255.3,0,0,0,54.4-52.9q23.1-30.4,42.6-77.4l5.9,13.7Zm3,105.8,33.3-32.3c-20.9-13.8-37.9-28.9-51-45.6S753,93.2,743.2,70.3c-10,24.9-21.6,45.6-34.9,61.9A231.4,231.4,0,0,1,660,176.5l32.3,31.4V401.5h-96V207.9l32.3-31.4a264.1,264.1,0,0,1-46.5-44.2Q562,107.7,547.3,67.4c-10.5,25.5-22.5,46.7-36.2,63.7a231.8,231.8,0,0,1-49,45l32.3,31.4V652.3l-32.3,32.3a224.7,224.7,0,0,1,48.5,45c13.3,17,25.6,37.9,36.7,62.7,9.1-25.4,20.6-46.6,34.3-63.6a231,231,0,0,1,47-44.1l-32.3-32.3V483.8h96V652.3L659,685.6a179.9,179.9,0,0,1,48.8,44.5c13.7,18,25.1,38.4,34.5,61.3,9.8-23.5,21.3-43.6,34.7-60.3s30.6-31.8,51.5-45.5a211.5,211.5,0,0,1-16.2-15.7c-6.9-7.2-12.6-13.1-17.1-17.6Zm-9.8,448.7,27.4,27.4q-26.4,16.6-42.6,36.3a179.3,179.3,0,0,0-27,45q-18.6-48.9-67.6-81.3l27.5-27.4V474H586.5V656.2l27.4,27.4a227.6,227.6,0,0,0-40.6,36.3,145.8,145.8,0,0,0-27,45,171.9,171.9,0,0,0-27.4-45c-11.1-13.1-25.2-25.2-42.1-36.3l27.4-27.4V203.6l-27.4-26.5c16.9-11.1,31-23.2,42.1-36.2a169,169,0,0,0,27.4-46.1,144.5,144.5,0,0,0,27,46.1,231.1,231.1,0,0,0,40.6,36.2l-27.4,26.5V410.3H703.1V203.6l-27.5-26.5c16.4-11.1,29.9-23.2,40.7-36.2s19.7-28.4,26.9-46.1a176,176,0,0,0,27,46.1q16.2,19.5,42.6,36.2l-27.4,26.5ZM652.1,390.7h31.4L682.6,229l-30.5,30.4Zm0,289,31.4-31.4V539.6H652.1Z"/><path d="M871.6,190.8l-29.4-25.4q83.3-18.6,135.7-44.6t73.9-64.2a82.6,82.6,0,0,0,11.8,18.6l19.6,18.7q56.7,48,180.2,71.5l-4.9,3.9,47.1,47-53.9,45.1V686.5l11.7,8.9c-1.3.6-2.1.8-2.4.5s-1.2-.2-2.5.4l47.1,46.1q-29.4,5-59.3,12.7a394.9,394.9,0,0,0-57.8,20.1,223.7,223.7,0,0,0-50.5,30.4,160.9,160.9,0,0,0-37.2,42.6l-47-47a5.7,5.7,0,0,0-2,3.9l-6.8-10.8Q991,761,898,742.4l-44.1-44.1-11.7-2.9L897,649.3v-433Zm324.2,463.4V209.5l45.1-38.3q-76.4-13.6-123.4-38.2t-65.7-56.8q-18.6,32.4-65.6,55.4T862.7,171.2l44.1,37.3V653.2l-43.1,36.3q150.9,30.3,188.1,96a128.7,128.7,0,0,1,33.8-38.7,208.2,208.2,0,0,1,46.6-26.9,381.8,381.8,0,0,1,53.8-18.2c19-4.9,37.3-8.9,54.9-12.2Zm-9.8-28.4v31.4l33.3,26.4c-15.6,3.3-32,6.9-48.9,10.8a294.9,294.9,0,0,0-49,15.7q-23.6,9.8-40.2,23.5a154.2,154.2,0,0,0-29.4,32.3q-30.3-53.9-167.5-82.3l32.3-26.4V204.6l-32.3-27.5q136.2-27.4,167.5-81.3,31.4,54.9,167.5,81.3L1186,204.6V625.8ZM1051.8,666c15,0,27.5-3.5,37.2-10.3s14.7-16.8,14.7-29.9V235.9c0-13.7-4.9-23.8-14.7-30.4s-22.2-9.8-37.2-9.8-26.8,3.3-37.2,9.8-15.7,16.7-15.7,30.4V625.8c0,13.1,5.2,23,15.7,29.9S1037.4,666,1051.8,666Zm0-9.8a57.1,57.1,0,0,1-29.9-7.9q-13.2-7.8-13.2-22.5V235.9c0-10.4,4.4-18.1,13.2-23a60.8,60.8,0,0,1,29.9-7.4c12.4,0,22.6,2.5,30.4,7.4s11.7,12.6,11.7,23V625.8q0,14.7-11.7,22.5C1074.4,653.6,1064.2,656.2,1051.8,656.2Zm12.8-10.8c13-3.3,19.5-9.8,19.5-19.6V264.3c-13,3.3-19.5,10.1-19.5,20.6Z"/><path d="M1297.7,334.8h-5.9V203.6l-41.1-40.2q70.5-18.6,120.5-42.1t79.3-53.9a459.9,459.9,0,0,0,35.8,32.3,396.1,396.1,0,0,0,34.8,25.5q14.7,9.7,48,20.6t84.2,18.6l-4.9,3.9,47,47-42.1,36.3V384.8q-48.9-7.8-97.9,34.3V698.3l36.2,36.2c-20.3,13.1-37.9,30.4-53.1,52s-28.5,46.7-40.1,75.4l-46.3-46-2.9,5.8a281.6,281.6,0,0,0-23.3-50.9,300.5,300.5,0,0,0-29.2-41.2l-25.5-25.4-21.6-16.7,39.2-39.2V389.7a103.8,103.8,0,0,0-22.5-7.3,73.2,73.2,0,0,0-22.6-1.5Zm299.8-135.1,33.3-29.4q-43.2-8-72-17.2c-19.3-6.2-33.8-12.5-43.6-19.1v1c-21.6-14.4-43.1-32.3-64.7-53.9q-53.9,55.8-180.2,88.2l31.3,29.4V325.1q49.1-3,87.2,38.2v-147l9.8-2.9V652.3l-33.3,33.3q58,37.2,84.8,108.7,14.6-37.2,34.4-64.7a175.7,175.7,0,0,1,47.3-45l-32.3-32.3V213.4l10.8,1.9V358.4q43.5-38.2,87.2-30.4Zm-9.8,116.5q-35.2-5.8-68.6,22.6V205.5l-28.4-3.9V656.2l27.4,27.4q-49.2,32.4-68,81.3-18.9-48.9-69.1-81.3l27.4-27.4V201.6l-29.4,5.9V338.8c-16.3-17.7-38.9-25.5-67.6-23.5V193.8l-20.6-18.6q108.8-27.4,159.7-80.4a345.8,345.8,0,0,0,58.8,47.5q31.4,20.1,99.9,33.8l-21.5,18.7ZM1427,742.4l1,1v0Zm147.9-580c-2.6-1.3-4.2-1.9-4.9-1.9S1572.3,161.1,1574.9,162.4Z"/><path d="M1666,189.9l-29.3-25.5q86.1-18.6,139.6-44.6t74.9-64.2A85.3,85.3,0,0,0,1863,74.3l17.6,16.6c18.9,17,44.1,31.7,75.4,44.1s68.9,22.2,112.7,29.4l-4.9,3.9,47,47-52.9,45.1v91.1l-6.8,6.9c-17,0-31.9,3.4-44.6,10.2s-25.7,17.8-38.7,32.9l43.1,15.6V422l46,46.1V686.5l10.8,8.9c-1.3.6-2.1.8-2.4.5s-1.2-.2-2.5.4l47,46.1q-85.2,14.7-138.1,41.6t-72.5,63.2l-47-47a5.7,5.7,0,0,0-2,3.9,36.2,36.2,0,0,0-6.8-9.8q-27.5-16.6-65.2-28.9c-25.1-8.2-54-15.8-86.7-23l-45-45.1c-1.3,0-4.6-.6-9.8-1.9l53.8-48V558.2a111,111,0,0,0,56.9-17.1c16.9-10.8,34.3-28.6,51.9-53.4l-56.8-20.6L1697.4,423l-6.9-2.9,1-204.8Zm336.1,112.6v-94l44.1-38.2q-79.4-13.8-127.9-38.2t-67.1-56.9q-18.6,32.4-67.1,55.4t-126.9,39.7l44.1,37.2-1,205.7,198.9,72.5v145c0,9.8-5.1,16.3-15.2,19.6a108.6,108.6,0,0,1-33.8,4.9c-12.4,0-23.5-1.6-33.3-4.9s-14.7-9.8-14.7-19.6V502.4q-22.5,34.2-46,49.4T1700.3,568v84.3l-43.1,37.2q157.8,32.3,193,95,18.6-32.2,67.1-56.8t127.9-38.2l-44.1-37.2V424q-47.1-16.7-99.4-35.8t-99.5-36.7l1-116.6c0-10.4,4.9-18.1,14.7-23s20.9-7.3,33.3-7.3,23.7,2.4,33.8,7.3,15.2,12.6,15.2,23V364.2q22.5-32.2,45.1-47T2002.1,302.5Zm-9.8-9.8q-31.3,0-49.5,9.3T1910,332.9v-98c0-13.7-6.1-23.8-18.1-30.3s-25.7-9.8-40.7-9.8a81.4,81.4,0,0,0-39.7,9.8c-12.1,6.5-18.1,16.6-18.1,30.3l-1,123.5,198.9,72.5V656.2l32.3,27.4q-142,26.4-173.4,81.3-31.4-53.9-172.4-81.3l32.3-27.4V577.8c20.3-.6,36.8-4.1,49.5-10.3s23.7-16.5,32.8-30.8v94c0,13.7,6.1,22.9,18.1,27.4a111.1,111.1,0,0,0,39.7,6.9c15,0,28.6-2.3,40.7-6.9s18.1-13.7,18.1-27.4V490.6l50.9,6.9L1909,477.9l-198.9-71.5,1-202.8-32.3-27.5q141-27.3,172.4-81.3,31.3,54.9,173.4,81.3l-32.3,27.5v89.1ZM1858.1,645.4a99.9,99.9,0,0,0,22-3.9q9.3-3,9.3-10.8V521l-61.7-23.5,30.4,30.3Zm0-283.1,32.3,11.7V261.4c-9.2,1.3-16.7,3.7-22.5,7.3s-8.9,8.7-8.9,15.2Z"/></svg>