<?xml version="1.0" encoding="utf-8"?>
<!-- Generator: Adobe Illustrator 25.0.0, SVG Export Plug-In . SVG Version: 6.00 Build 0)  -->
<svg version="1.1" fill="#ffffff" id="Layer_1" xmlns="http://www.w3.org/2000/svg" xmlns:xlink="http://www.w3.org/1999/xlink" x="0px" y="0px"
	 viewBox="0 0 16 16" style="enable-background:new 0 0 16 16;" xml:space="preserve">
<style type="text/css">
	.st0{fill-rule:evenodd;clip-rule:evenodd;}
</style>
<path class="st0" d="M0,13.8c0-0.4,0.3-0.7,0.7-0.7h14.5c0.4,0,0.7,0.3,0.7,0.7c0,0.4-0.3,0.7-0.7,0.7H0.7C0.3,14.5,0,14.2,0,13.8z
	 M0,8c0-0.4,0.3-0.7,0.7-0.7h14.5C15.7,7.3,16,7.6,16,8c0,0.4-0.3,0.7-0.7,0.7H0.7C0.3,8.7,0,8.4,0,8z M0,2.2c0-0.4,0.3-0.7,0.7-0.7
	h14.5c0.4,0,0.7,0.3,0.7,0.7s-0.3,0.7-0.7,0.7H0.7C0.3,2.9,0,2.6,0,2.2z"/>
</svg>
