<?xml version="1.0" encoding="utf-8"?>
<!-- Generator: Adobe Illustrator 25.0.0, SVG Export Plug-In . SVG Version: 6.00 Build 0)  -->
<svg version="1.1" id="Layer_1" xmlns="http://www.w3.org/2000/svg" xmlns:xlink="http://www.w3.org/1999/xlink" x="0px" y="0px"
	 viewBox="0 0 11.4 11.4" style="enable-background:new 0 0 11.4 11.4;" fill="#ffffff" xml:space="preserve">
<style type="text/css">
	.st0{fill-rule:evenodd;clip-rule:evenodd;}
</style>
<path class="st0" d="M0,9.9c0-0.3,0.2-0.5,0.5-0.5h10.4c0.3,0,0.5,0.2,0.5,0.5c0,0.3-0.2,0.5-0.5,0.5H0.5C0.2,10.4,0,10.1,0,9.9z
	 M0,5.7c0-0.3,0.2-0.5,0.5-0.5h10.4c0.3,0,0.5,0.2,0.5,0.5s-0.2,0.5-0.5,0.5H0.5C0.2,6.2,0,6,0,5.7z M0,1.6C0,1.3,0.2,1,0.5,1h10.4
	c0.3,0,0.5,0.2,0.5,0.5s-0.2,0.5-0.5,0.5H0.5C0.2,2.1,0,1.8,0,1.6z"/>
</svg>
