<svg id="Layer_2" data-name="Layer 2" xmlns="http://www.w3.org/2000/svg" viewBox="0 0 1920 1920"><defs><style>.cls-1{fill:#f03f39;}</style></defs><title>Artboard 1</title><path class="cls-1" d="M552.88,769.34,738.88,391h313.4L734.2,955.34,1060.88,1529H744.36l-191.48-385.3L361.4,1529H45.66l325.9-573.65L54.26,391H366.87Z"/><path class="cls-1" d="M1379.63,1126.5h-148.5V1529H956.81V391h447.83q202.41,0,316.52,89.74t114.1,253.81q0,118.59-48.06,196.82-48.06,78-150.45,126.48l237.59,459.41V1529H1580.48Zm-148.5-211h173.51q78.15,0,117.62-41.16t39.47-114.75q0-73.67-39.86-115.54t-117.23-41.94H1231.13Z"/></svg>