<svg id="Layer_1" data-name="Layer 1" xmlns="http://www.w3.org/2000/svg" viewBox="0 0 2000 2000"><defs><style>.cls-1{fill:#fff;}</style></defs><path class="cls-1" d="M1576.4,15.3H423.6a32.3,32.3,0,0,0-32.1,35.6l184.9,1812a93.8,93.8,0,0,0,76.5,82.9l78.6,14.4a1486.5,1486.5,0,0,0,537,0l78.6-14.4a93.8,93.8,0,0,0,76.5-82.9l184.9-1812A32.3,32.3,0,0,0,1576.4,15.3Zm-12.1,67.3L1392.8,1611.3c-3.9,35.1-32.8,63.6-71,69.9l-72.8,12.2a1513.4,1513.4,0,0,1-498,0l-72.8-12.2c-38.2-6.3-67.1-34.8-71-69.9L435.7,82.6c-1.8-16,12.1-30,29.8-30h1069C1552.2,52.6,1566.1,66.6,1564.3,82.6Z"/><path class="cls-1" d="M606.5,954.5c-17.3,0-30.8,15.5-28.9,33.3l63,587.6c3.6,33.6,30,61,64.9,67.1l66.7,11.6a1320.3,1320.3,0,0,0,455.6,0l66.7-11.6c34.9-6.1,61.3-33.5,64.9-67.1l63-587.6c1.9-17.8-11.6-33.3-28.9-33.3Z"/></svg>