<svg id="Layer_1" data-name="Layer 1" xmlns="http://www.w3.org/2000/svg" viewBox="0 0 2141.8 683.3"><path d="M415.3,39H60.2a10,10,0,0,0-9.9,11l56.9,558.2a29.1,29.1,0,0,0,23.6,25.5l24.2,4.5a460.3,460.3,0,0,0,165.5,0l24.2-4.5a29.1,29.1,0,0,0,23.6-25.5L425.2,50A10,10,0,0,0,415.3,39Zm-3.7,20.8L358.8,530.7c-1.3,10.8-10.2,19.6-21.9,21.5L314.5,556A470.7,470.7,0,0,1,161,556l-22.4-3.8c-11.7-1.9-20.6-10.7-21.9-21.5L63.9,59.8c-.5-5,3.7-9.3,9.2-9.3H402.4C407.9,50.5,412.1,54.8,411.6,59.8Z"/><path d="M116.5,328.3a9.2,9.2,0,0,0-8.9,10.3l19.4,181c1.1,10.4,9.3,18.8,20,20.7l20.6,3.6a408.1,408.1,0,0,0,140.3,0l20.6-3.6c10.7-1.9,18.9-10.3,20-20.7l19.4-181a9.2,9.2,0,0,0-8.9-10.3Z"/><path d="M563.7,147.1l-21.9-19q64.2-13.8,104-33.2C672.3,82,690.9,66,701.6,47.1a66.9,66.9,0,0,0,8.8,13.8l13.1,12.4C737.6,86,756.4,97,779.7,106.2s51.4,16.5,84,21.9l-3.6,2.9,35,35.1-39.4,33.5v67.9l-5.1,5.1c-12.7,0-23.8,2.6-33.3,7.7s-19.1,13.3-28.8,24.5l32.1,11.6v3.7l34.3,34.3V517.2l8.1,6.6c-1,.5-1.6.6-1.9.3s-.8-.1-1.8.4l35.1,34.3q-63.6,11-103,31t-54,47.1l-35-35a4.1,4.1,0,0,0-1.5,2.9,31.4,31.4,0,0,0-5.1-7.3c-13.6-8.3-29.8-15.4-48.6-21.5s-40.2-11.8-64.6-17.2l-33.5-33.6a38.4,38.4,0,0,1-7.3-1.4L581.9,488V421.6a82.4,82.4,0,0,0,42.3-12.8q19-12,38.7-39.8l-42.3-15.3L587,320.8l-5.1-2.2.7-152.5ZM814.1,231V160.9l32.8-28.4q-59.1-10.2-95.3-28.5c-24.1-12.2-40.7-26.3-50-42.3-9.2,16-25.9,29.8-50,41.2s-55.6,21.3-94.5,29.6l32.8,27.7-.7,153.3,148.2,54V475.6c0,7.3-3.8,12.2-11.3,14.6a83.4,83.4,0,0,1-25.2,3.6,78.9,78.9,0,0,1-24.8-3.6c-7.3-2.4-11-7.3-11-14.6V380q-16.8,25.5-34.3,36.8c-11.7,7.6-25.5,11.6-41.6,12.1v62.8l-32.1,27.7q117.4,24.1,143.8,70.8c9.2-16,25.9-30.2,50-42.3s55.9-21.7,95.3-28.5l-32.9-27.7V321.6l-74.1-26.7q-39-14.2-74.1-27.4l.8-86.8c0-7.8,3.6-13.5,10.9-17.2a54.2,54.2,0,0,1,24.8-5.5,56.2,56.2,0,0,1,25.2,5.5c7.6,3.7,11.3,9.4,11.3,17.2V277q16.8-24,33.6-35C782.9,234.7,797,231,814.1,231Zm-7.3-7.3c-15.6,0-27.9,2.3-36.9,7s-17.2,12.3-24.5,23v-73c0-10.3-4.5-17.8-13.5-22.7a63.4,63.4,0,0,0-30.3-7.3,61.7,61.7,0,0,0-29.5,7.3c-9,4.9-13.5,12.4-13.5,22.7l-.8,91.9L806,326.7V494.6L830.1,515q-105.9,19.8-129.2,60.6Q677.5,535.6,572.4,515l24.1-20.4V436.2c15.1-.5,27.4-3.1,36.9-7.7s17.6-12.3,24.4-23v70.1q0,15.3,13.5,20.4a83.3,83.3,0,0,0,29.6,5.1,85.2,85.2,0,0,0,30.3-5.1q13.5-5.1,13.5-20.4V371.2l38,5.1-38-14.6L596.5,308.4l.7-151.1-24.1-20.4q105.1-20.6,128.5-60.6,23.4,40.8,129.2,60.6l-24,20.4v66.4ZM706.7,486.5a67.9,67.9,0,0,0,16.5-2.9c4.6-1.4,6.9-4.1,6.9-8V393.8l-46-17.5,22.6,22.6Zm0-210.9,24.1,8.7V200.4a44.3,44.3,0,0,0-16.8,5.4,12.8,12.8,0,0,0-6.5,11.4Z"/><path d="M1109,81.4c2.9,7.3,5.8,14.2,8.7,20.8a134,134,0,0,0,10.3,18.6c4.8,4.4,11.4,9,19.7,13.9l-2.2,2.2,35,35-27.7,27V526l27.7,27.7c-17.5,11.2-31.9,24-43,38.3s-21.2,32.3-30,53.7l-35-35L1071,615q-16.1-40.8-40.1-69.3l-14.6-13.9-11.7-10.2-.4,4.4,27,27A170.9,170.9,0,0,0,993,589.5q-16.9,21.9-29.3,56.9l-35-35a10.7,10.7,0,0,0-1.5,4.4c-11.7-26.3-23.8-47.2-36.5-62.8l-28.5-29.2L852,516.5l27.8-27.8V163.1l-28.5-27A189,189,0,0,0,894.4,96c12.1-15.6,23.1-35.8,32.8-60.6l3.7,10.9,32.8,32.2A263.3,263.3,0,0,0,975,105.8a230.4,230.4,0,0,0,12.8,23l10.2,7.3-1.4,1.5L1028,169v-5.9l-13.2-12.4-14.6-14.6a187,187,0,0,0,40.5-39.4c11.5-15.1,22-34.3,31.8-57.7l4.4,10.2Zm2.2,78.8,24.8-24.1c-15.6-10.2-28.2-21.5-38-33.9S1079.8,75,1072.5,58c-7.5,18.6-16.1,33.9-26,46.1a173.9,173.9,0,0,1-36.1,33l24.1,23.4V304.8H963V160.5l24.1-23.4a191,191,0,0,1-34.7-33q-15-18.3-25.9-48.3-11.7,28.5-27,47.5A177.9,177.9,0,0,1,863,136.9l24.1,23.3V491.7l-24.1,24a168.3,168.3,0,0,1,36.1,33.6q15,19.1,27.4,46.8,10.2-28.5,25.5-47.5a171.1,171.1,0,0,1,35.1-32.9l-24.1-24V366.1h71.5V491.7l-24.8,24.8a133.8,133.8,0,0,1,36.4,33.2,201.2,201.2,0,0,1,25.7,45.6q11-26.2,25.9-44.9t38.3-33.9c-2.9-2.5-6.9-6.3-12-11.7l-12.8-13.1Zm-7.3,334.4,20.4,20.4c-13.1,8.3-23.7,17.3-31.7,27a133.7,133.7,0,0,0-20.1,33.6q-13.9-36.5-50.4-60.6l20.5-20.4V358.8H955.7V494.6L976.1,515a173.4,173.4,0,0,0-30.3,27,113.7,113.7,0,0,0-20.1,33.6A128.9,128.9,0,0,0,905.3,542a145.9,145.9,0,0,0-31.4-27l20.5-20.4V157.3l-20.5-19.7a145.9,145.9,0,0,0,31.4-27,125.2,125.2,0,0,0,20.4-34.3,111.2,111.2,0,0,0,20.1,34.3,173.4,173.4,0,0,0,30.3,27l-20.4,19.7v154h86.9v-154l-20.5-19.7a143.5,143.5,0,0,0,30.3-27,135.3,135.3,0,0,0,20.1-34.3,129.7,129.7,0,0,0,20.1,34.3c8,9.7,18.6,18.7,31.7,27l-20.4,19.7Zm-99.3-197.9H1028l-.7-120.4-22.7,22.6Zm0,215.4,23.4-23.4v-81h-23.4Z"/><path d="M1168.1,147.8l-21.9-19q62.1-13.8,101.1-33.2c26.1-12.9,44.4-28.8,55.1-47.8a67.4,67.4,0,0,0,8.8,13.9l14.6,13.8q42.3,35.9,134.3,53.3l-3.6,2.9,35,35.1-40.1,33.6V517.2l8.7,6.6q-1.3.8-1.8.3c-.2-.2-.8-.1-1.8.4l35,34.3c-14.6,2.5-29.3,5.6-44.1,9.5a288.9,288.9,0,0,0-43.1,15,166.2,166.2,0,0,0-37.6,22.6,118.9,118.9,0,0,0-27.8,31.8l-35-35.1a4.3,4.3,0,0,0-1.5,2.9l-5.1-8q-40-24.7-109.5-38.7L1155,526l-8.8-2.2,40.9-34.3V166.8Zm241.7,345.3V161.7l33.5-28.5q-56.8-10.2-91.9-28.5t-49-42.3q-13.8,24.2-48.9,41.2t-92,29.6l32.9,27.7V492.4l-32.1,27q112.4,22.6,140.1,71.5a97.6,97.6,0,0,1,25.2-28.8,160.5,160.5,0,0,1,34.7-20.1,300.9,300.9,0,0,1,40.2-13.5c14.1-3.6,27.7-6.7,40.8-9.1Zm-7.3-21.2v23.4l24.8,19.7c-11.7,2.5-23.9,5.1-36.5,8a242.9,242.9,0,0,0-36.5,11.7c-11.7,4.9-21.7,10.7-30,17.6a119.9,119.9,0,0,0-21.9,24q-22.5-40-124.8-61.3l24.1-19.7V158l-24.1-20.4q101.6-20.4,124.8-60.6,23.4,40.9,124.9,60.6L1402.5,158V471.9Zm-100.1,30c11.2,0,20.5-2.6,27.8-7.7s10.9-12.5,10.9-22.3V181.4c0-10.2-3.6-17.8-10.9-22.6s-16.6-7.3-27.8-7.3-19.9,2.4-27.7,7.3-11.7,12.4-11.7,22.6V471.9c0,9.8,3.9,17.2,11.7,22.3S1291.7,501.9,1302.4,501.9Zm0-7.3a42.6,42.6,0,0,1-22.2-5.9q-9.9-5.8-9.9-16.8V181.4c0-7.8,3.3-13.5,9.9-17.2a45.3,45.3,0,0,1,22.2-5.4c9.3,0,16.8,1.8,22.7,5.4s8.7,9.4,8.7,17.2V471.9q0,11-8.7,16.8C1319.2,492.6,1311.7,494.6,1302.4,494.6Zm9.5-8.1c9.8-2.4,14.6-7.3,14.6-14.6V202.6c-9.7,2.4-14.6,7.5-14.6,15.3Z"/><path d="M1485.7,255.1h-4.4V157.3l-30.7-29.9q52.7-14,89.8-31.4t59.2-40.2a327.2,327.2,0,0,0,26.6,24.1,307.4,307.4,0,0,0,25.9,19c7.3,4.9,19.2,10,35.8,15.3s37.5,10,62.8,13.9L1747,131l35.1,35.1-31.4,27v99.3q-36.6-5.8-73,25.5V526l27,27q-22.7,14.6-39.6,38.7c-11.3,16-21.2,34.8-29.8,56.2l-34.6-34.3-2.2,4.4a208.5,208.5,0,0,0-17.3-38,227.2,227.2,0,0,0-21.7-30.7l-19.1-19-16-12.4,29.2-29.2V296a82.6,82.6,0,0,0-16.8-5.5,60.9,60.9,0,0,0-16.8-1.1Zm223.4-100.7,24.8-21.9q-32.1-5.9-53.7-12.8c-14.3-4.6-25.2-9.4-32.5-14.2v.7A316.4,316.4,0,0,1,1599.6,66q-40.2,41.7-134.4,65.7l23.4,21.9v94.2q36.5-2.1,65,28.5V166.8l7.3-2.2V491.7L1536,516.5q43.4,27.8,63.3,81c7.2-18.5,15.7-34.5,25.6-48.2a131,131,0,0,1,35.3-33.6l-24.1-24V164.6l8,1.5V272.6c21.6-18.9,43.3-26.5,65-22.6Zm-7.3,86.8q-26.4-4.3-51.1,16.8V158.8l-21.2-3V494.6l20.4,20.4q-36.6,24.2-50.6,60.6-14.1-36.5-51.6-60.6l20.5-20.4V155.8l-21.9,4.4V258q-18.3-19.6-50.4-17.5V150l-15.3-13.9q81-20.4,119-59.8a261.3,261.3,0,0,0,43.8,35.4c15.5,9.9,40.4,18.3,74.4,25.2l-16,13.8ZM1582,558.8l.8.7v0Zm110.3-432.2a15.1,15.1,0,0,0-3.7-1.4A15.1,15.1,0,0,1,1692.3,126.6Z"/><path d="M1760.2,147.1l-21.9-19q64.2-13.8,104-33.2c26.5-12.9,45.1-28.9,55.8-47.8a66.9,66.9,0,0,0,8.8,13.8L1920,73.3c14.2,12.7,32.9,23.7,56.3,32.9s51.3,16.5,83.9,21.9l-3.6,2.9,35,35.1-39.4,33.5v67.9l-5.1,5.1c-12.7,0-23.7,2.6-33.2,7.7s-19.1,13.3-28.9,24.5l32.1,11.6v3.7l34.4,34.3V517.2l8,6.6q-1.5.8-1.8.3c-.3-.2-.9-.1-1.9.4l35.1,34.3q-63.6,11-103,31t-54,47.1l-35-35a4.1,4.1,0,0,0-1.5,2.9,28.7,28.7,0,0,0-5.1-7.3c-13.6-8.3-29.8-15.4-48.5-21.5s-40.3-11.8-64.6-17.2l-33.6-33.6a38.4,38.4,0,0,1-7.3-1.4l40.1-35.8V421.6a83,83,0,0,0,42.4-12.8q18.9-12,38.7-39.8l-42.4-15.3-33.6-32.9-5.1-2.2.8-152.5ZM2010.6,231V160.9l32.8-28.4q-59.1-10.2-95.2-28.5t-50.1-42.3c-9.2,16-25.9,29.8-50,41.2s-55.6,21.3-94.5,29.6l32.9,27.7-.8,153.3,148.2,54V475.6c0,7.3-3.8,12.2-11.3,14.6a82.5,82.5,0,0,1-25.2,3.6,79.4,79.4,0,0,1-24.8-3.6c-7.3-2.4-11-7.3-11-14.6V380q-16.8,25.5-34.3,36.8c-11.6,7.6-25.5,11.6-41.6,12.1v62.8l-32.1,27.7q117.6,24.1,143.8,70.8c9.3-16,25.9-30.2,50-42.3s55.9-21.7,95.3-28.5l-32.9-27.7V321.6l-74.1-26.7q-39-14.2-74.1-27.4l.8-86.8c0-7.8,3.6-13.5,10.9-17.2a54.2,54.2,0,0,1,24.8-5.5,56.2,56.2,0,0,1,25.2,5.5c7.6,3.7,11.3,9.4,11.3,17.2V277q16.8-24,33.6-35C1979.4,234.7,1993.5,231,2010.6,231Zm-7.3-7.3c-15.6,0-27.9,2.3-36.9,7s-17.1,12.3-24.4,23v-73c0-10.3-4.6-17.8-13.6-22.7a63.4,63.4,0,0,0-30.3-7.3,61.7,61.7,0,0,0-29.5,7.3c-9,4.9-13.5,12.4-13.5,22.7l-.8,91.9,148.2,54.1V494.6l24.1,20.4q-105.7,19.8-129.2,60.6Q1874,535.6,1768.9,515l24.1-20.4V436.2c15.1-.5,27.4-3.1,36.9-7.7s17.6-12.3,24.4-23v70.1c0,10.2,4.5,17,13.6,20.4a82.7,82.7,0,0,0,29.5,5.1,85.2,85.2,0,0,0,30.3-5.1q13.5-5.1,13.5-20.4V371.2l38,5.1-38-14.6L1793,308.4l.8-151.1-24.1-20.4q105-20.6,128.4-60.6,23.4,40.8,129.3,60.6l-24.1,20.4v66.4Zm-100,262.8a67,67,0,0,0,16.4-2.9c4.6-1.4,6.9-4.1,6.9-8V393.8l-46-17.5,22.7,22.6Zm0-210.9,24.1,8.7V200.4a43.2,43.2,0,0,0-16.8,5.4q-6.6,4-6.6,11.4Z"/></svg>