<svg id="Layer_4" data-name="Layer 4" xmlns="http://www.w3.org/2000/svg" viewBox="0 0 118.65 75"><polygon points="36.12 74.59 34.99 75 33.03 74.59 33.03 17.71 36.12 17.71 36.12 74.59"/><polygon points="85.62 74.59 83.38 75 82.53 74.59 82.53 17.71 85.62 17.71 85.62 74.59"/><polygon points="16.23 68.3 14.76 68.52 14.27 68.3 14.27 16.95 16.23 16.95 16.23 68.3"/><polygon points="104.38 68.3 103.66 68.52 102.43 68.3 102.43 16.95 104.38 16.95 104.38 68.3"/><polygon points="39.8 64.14 38.32 64.29 37.84 64.14 37.84 17.71 39.8 17.71 39.8 64.14"/><polygon points="80.78 64.14 80.24 64.29 78.83 64.14 78.83 17.71 80.78 17.71 80.78 64.14"/><rect x="33.03" y="14.24" width="52.58" height="3.47"/><polygon points="33.03 17.71 14.27 16.95 14.27 13.48 33.03 14.24 33.03 17.71"/><polygon points="104.38 13.48 85.62 14.24 85.62 17.71 104.38 16.95 104.38 13.48"/><polygon points="16.23 49.91 33.03 52.48 33.03 49.5 16.23 46.92 16.23 49.91"/><polygon points="16.23 54.96 33.03 57.54 33.03 54.55 16.23 51.98 16.23 54.96"/><polygon points="85.62 54.55 102.43 51.98 102.43 54.96 85.62 57.54 85.62 54.55"/><polygon points="85.62 49.5 102.43 46.92 102.43 49.91 85.62 52.48 85.62 49.5"/><polygon points="60.63 20.56 58.02 20.56 54.98 17.71 63.67 17.71 60.63 20.56"/><rect x="58.02" y="20.56" width="2.62" height="1.95"/><rect x="39.8" y="44.31" width="39.03" height="2.15"/><rect x="39.8" y="48.63" width="39.03" height="2.15"/><polygon points="102.43 49.07 80.78 46.46 80.78 44.31 102.43 46.92 102.43 49.07"/><polygon points="102.43 53.39 80.78 50.78 80.78 48.63 102.43 51.24 102.43 53.39"/><polygon points="37.84 48.88 16.2 51.49 16.2 53.64 37.84 51.02 37.84 48.88"/><polygon points="37.84 44.56 16.2 47.17 16.2 49.32 37.84 46.7 37.84 44.56"/><polygon points="82.53 61.49 73.42 59.65 87.61 57.23 76.77 54.76 41.87 54.76 31.02 57.23 45.23 59.65 36.12 61.49 16.22 57.56 16.22 56.62 37.84 53.64 80.78 53.64 102.43 56.62 102.43 57.56 82.53 61.49"/><polygon points="16.22 58.94 33.03 62.26 33.03 60.88 16.22 57.56 16.22 58.94"/><polygon points="85.62 60.88 102.43 57.56 102.43 58.94 85.62 62.26 85.62 60.88"/><polygon points="36.12 62.87 45.23 61.03 45.23 59.65 36.12 61.49 36.12 62.87"/><polygon points="36.12 62.87 45.23 61.03 45.23 59.65 36.12 61.49 36.12 62.87"/><polygon points="32.76 58.21 41.87 56.14 41.87 54.76 32.76 56.83 32.76 58.21"/><polygon points="76.77 54.76 85.88 56.83 85.88 58.21 76.77 56.14 76.77 54.76"/><polygon points="73.42 59.65 82.53 61.49 82.53 62.87 73.42 61.03 73.42 59.65"/><rect x="43.33" y="54.76" width="31.97" height="1.38"/><polygon points="43.77 72.87 44.5 73.07 45.23 72.87 45.23 61.03 43.77 61.03 43.77 72.87"/><rect x="41.87" y="54.76" width="1.46" height="11.56"/><rect x="75.3" y="54.76" width="1.46" height="11.56"/><polygon points="25.44 69.89 26.17 70.21 26.9 69.89 26.9 60.26 25.44 60.26 25.44 69.89"/><polygon points="91.75 69.89 92.48 70.21 93.21 69.89 93.21 60.26 91.75 60.26 91.75 69.89"/><polygon points="73.42 72.87 74.15 73.07 74.88 72.87 74.88 61.03 73.42 61.03 73.42 72.87"/><path d="M118.65,13.17c-.06-.57,0-1.49,0-1.95s-.58-.28-.75-.28a11.34,11.34,0,0,1-1.31,0l-6.3-1c-.4-.05-.69-.57-.75-.8a.52.52,0,0,0-.74-.34,6.24,6.24,0,0,1-1.78,0c-.34,0-5.32-.63-6-.63s-.57-.69-1-1-1.2.29-1.48.29S92.25,6.87,92,6.81s-.23-.8-.68-.74-1.49,0-1.84,0-5.32-.52-5.78-.57-1.09-.8-1.37-.86a12.15,12.15,0,0,0-1.48,0c-.39,0-6.77-.57-7-.57s-.17-.41-.34-.75-.35,0-1,0a12.6,12.6,0,0,1-2.87-.23c-.8-.23-4.4-.57-4.4-.57a2.59,2.59,0,0,0,0-.69c-.06-.4-.63,0-1.09,0A5.2,5.2,0,0,1,62,.52,2.06,2.06,0,0,0,60.87,0H57.78a2.06,2.06,0,0,0-1.09.52,5.2,5.2,0,0,1-2.12,1.31c-.45,0-1-.4-1.08,0a2.16,2.16,0,0,0,0,.69s-3.61.34-4.41.57a12.56,12.56,0,0,1-2.87.23c-.68,0-.85-.34-1,0s-.11.75-.34.75-6.61.57-7,.57a12,12,0,0,0-1.47,0c-.29.06-.92.8-1.38.86s-5.44.57-5.78.57-1.38.06-1.83,0-.41.69-.69.74-6.36.69-6.64.69S19,6.93,18.56,7.21s-.35,1-1,1-5.61.63-5.95.63a6.24,6.24,0,0,1-1.78,0,.53.53,0,0,0-.74.34c-.06.23-.34.75-.75.8l-6.29,1a11.5,11.5,0,0,1-1.32,0c-.17,0-.75-.17-.75.28s.06,1.38,0,1.95.46.28,1,.31,1-.33,1.14,0a4,4,0,0,0,.29.71H3s.86,1.38,1.49,1.36A7.62,7.62,0,0,1,6.36,16c.23.05,1.09-.92,1.55-.92s1.2.51,1.77.54,2.35-.88,2.58-.71a18,18,0,0,0,2,.71h90.11a18,18,0,0,0,2-.71c.23-.17,2,.74,2.58.71s1.32-.54,1.78-.54,1.31,1,1.54.92a7.62,7.62,0,0,1,1.83-.38c.63,0,1.49-1.36,1.49-1.36h.57a4,4,0,0,0,.29-.71c.12-.38.57,0,1.15,0S118.7,13.74,118.65,13.17Z"/></svg>