<svg id="Layer_4" data-name="Layer 4" xmlns="http://www.w3.org/2000/svg" viewBox="0 0 264.24 75"><polygon points="36.12 74.59 34.99 75 33.03 74.59 33.03 17.71 36.12 17.71 36.12 74.59"/><polygon points="85.62 74.59 83.38 75 82.53 74.59 82.53 17.71 85.62 17.71 85.62 74.59"/><polygon points="16.23 68.3 14.76 68.52 14.27 68.3 14.27 16.95 16.23 16.95 16.23 68.3"/><polygon points="104.38 68.3 103.66 68.52 102.43 68.3 102.43 16.95 104.38 16.95 104.38 68.3"/><polygon points="39.8 64.14 38.32 64.29 37.84 64.14 37.84 17.71 39.8 17.71 39.8 64.14"/><polygon points="80.78 64.14 80.24 64.29 78.83 64.14 78.83 17.71 80.78 17.71 80.78 64.14"/><rect x="33.03" y="14.24" width="52.58" height="3.47"/><polygon points="33.03 17.71 14.27 16.95 14.27 13.48 33.03 14.24 33.03 17.71"/><polygon points="104.38 13.48 85.62 14.24 85.62 17.71 104.38 16.95 104.38 13.48"/><polygon points="16.23 49.91 33.03 52.48 33.03 49.5 16.23 46.92 16.23 49.91"/><polygon points="16.23 54.96 33.03 57.54 33.03 54.55 16.23 51.98 16.23 54.96"/><polygon points="85.62 54.55 102.43 51.98 102.43 54.96 85.62 57.54 85.62 54.55"/><polygon points="85.62 49.5 102.43 46.92 102.43 49.91 85.62 52.48 85.62 49.5"/><polygon points="60.63 20.56 58.02 20.56 54.98 17.71 63.67 17.71 60.63 20.56"/><rect x="58.02" y="20.56" width="2.62" height="1.95"/><rect x="39.8" y="44.31" width="39.03" height="2.15"/><rect x="39.8" y="48.63" width="39.03" height="2.15"/><polygon points="102.43 49.07 80.78 46.46 80.78 44.31 102.43 46.92 102.43 49.07"/><polygon points="102.43 53.39 80.78 50.78 80.78 48.63 102.43 51.24 102.43 53.39"/><polygon points="37.84 48.88 16.2 51.49 16.2 53.64 37.84 51.02 37.84 48.88"/><polygon points="37.84 44.56 16.2 47.17 16.2 49.32 37.84 46.7 37.84 44.56"/><polygon points="82.53 61.49 73.42 59.65 87.61 57.23 76.77 54.76 41.87 54.76 31.02 57.23 45.23 59.65 36.12 61.49 16.22 57.56 16.22 56.62 37.84 53.64 80.78 53.64 102.43 56.62 102.43 57.56 82.53 61.49"/><polygon points="16.22 58.94 33.03 62.26 33.03 60.88 16.22 57.56 16.22 58.94"/><polygon points="85.62 60.88 102.43 57.56 102.43 58.94 85.62 62.26 85.62 60.88"/><polygon points="36.12 62.87 45.23 61.03 45.23 59.65 36.12 61.49 36.12 62.87"/><polygon points="36.12 62.87 45.23 61.03 45.23 59.65 36.12 61.49 36.12 62.87"/><polygon points="32.76 58.21 41.87 56.14 41.87 54.76 32.76 56.83 32.76 58.21"/><polygon points="76.77 54.76 85.88 56.83 85.88 58.21 76.77 56.14 76.77 54.76"/><polygon points="73.42 59.65 82.53 61.49 82.53 62.87 73.42 61.03 73.42 59.65"/><rect x="43.33" y="54.76" width="31.97" height="1.38"/><polygon points="43.77 72.87 44.5 73.07 45.23 72.87 45.23 61.03 43.77 61.03 43.77 72.87"/><rect x="41.87" y="54.76" width="1.46" height="11.56"/><rect x="75.3" y="54.76" width="1.46" height="11.56"/><polygon points="25.44 69.89 26.17 70.21 26.9 69.89 26.9 60.26 25.44 60.26 25.44 69.89"/><polygon points="91.75 69.89 92.48 70.21 93.21 69.89 93.21 60.26 91.75 60.26 91.75 69.89"/><polygon points="73.42 72.87 74.15 73.07 74.88 72.87 74.88 61.03 73.42 61.03 73.42 72.87"/><path d="M118.65,13.17c-.06-.57,0-1.49,0-1.95s-.58-.28-.75-.28a11.34,11.34,0,0,1-1.31,0l-6.3-1c-.4-.05-.69-.57-.75-.8a.52.52,0,0,0-.74-.34,6.24,6.24,0,0,1-1.78,0c-.34,0-5.32-.63-6-.63s-.57-.69-1-1-1.2.29-1.48.29S92.25,6.87,92,6.81s-.23-.8-.68-.74-1.49,0-1.84,0-5.32-.52-5.78-.57-1.09-.8-1.37-.86a12.15,12.15,0,0,0-1.48,0c-.39,0-6.77-.57-7-.57s-.17-.41-.34-.75-.35,0-1,0a12.6,12.6,0,0,1-2.87-.23c-.8-.23-4.4-.57-4.4-.57a2.59,2.59,0,0,0,0-.69c-.06-.4-.63,0-1.09,0A5.2,5.2,0,0,1,62,.52,2.06,2.06,0,0,0,60.87,0H57.78a2.06,2.06,0,0,0-1.09.52,5.2,5.2,0,0,1-2.12,1.31c-.45,0-1-.4-1.08,0a2.16,2.16,0,0,0,0,.69s-3.61.34-4.41.57a12.56,12.56,0,0,1-2.87.23c-.68,0-.85-.34-1,0s-.11.75-.34.75-6.61.57-7,.57a12,12,0,0,0-1.47,0c-.29.06-.92.8-1.38.86s-5.44.57-5.78.57-1.38.06-1.83,0-.41.69-.69.74-6.36.69-6.64.69S19,6.93,18.56,7.21s-.35,1-1,1-5.61.63-5.95.63a6.24,6.24,0,0,1-1.78,0,.53.53,0,0,0-.74.34c-.06.23-.34.75-.75.8l-6.29,1a11.5,11.5,0,0,1-1.32,0c-.17,0-.75-.17-.75.28s.06,1.38,0,1.95.46.28,1,.31,1-.33,1.14,0a4,4,0,0,0,.29.71H3s.86,1.38,1.49,1.36A7.62,7.62,0,0,1,6.36,16c.23.05,1.09-.92,1.55-.92s1.2.51,1.77.54,2.35-.88,2.58-.71a18,18,0,0,0,2,.71h90.11a18,18,0,0,0,2-.71c.23-.17,2,.74,2.58.71s1.32-.54,1.78-.54,1.31,1,1.54.92a7.62,7.62,0,0,1,1.83-.38c.63,0,1.49-1.36,1.49-1.36h.57a4,4,0,0,0,.29-.71c.12-.38.57,0,1.15,0S118.7,13.74,118.65,13.17Z"/><path d="M140.24,15.55v2.84h-8.92V6.53h8.92V9.26h-5.35V11h4.33v2.64h-4.33v1.93Z"/><path d="M152.38,18.39h-4l-2.05-4.49-1.23,1.75v2.74h-3.43V6.53h3.43v4.9l3.27-4.9h3.27l-3,4.34Z"/><path d="M153.36,18.39V6.53h9.91V18.39h-3.64V9.27H157v9.12Z"/><path d="M170.47,18.57a5.36,5.36,0,0,1-4.08-1.66,6.2,6.2,0,0,1-1.58-4.44,6.42,6.42,0,0,1,1.51-4.39,5.23,5.23,0,0,1,4.18-1.74,5.33,5.33,0,0,1,4,1.64,6,6,0,0,1,1.56,4.36,6.42,6.42,0,0,1-1.57,4.53A5.29,5.29,0,0,1,170.47,18.57Zm0-2.69a1.38,1.38,0,0,0,1.33-.81,7.27,7.27,0,0,0,.4-2.94c0-2.06-.55-3.09-1.66-3.09s-1.79,1.17-1.79,3.53C168.73,14.77,169.3,15.88,170.45,15.88Z"/><path d="M179.09,18.39h-2.9l3.75-11.86h3.87l3.69,11.86h-3.6l-2.38-8.45Z"/><path d="M191.81,6.53V18.39h-3.64V6.53Z"/><path d="M198.76,9.37v9h-3.45v-9h-2.46V6.53h8.37V9.37Z"/><path d="M205.89,6.53V18.39h-3.64V6.53Z"/><path d="M207.29,18.39V15.68l3.21-2.75-2.92-3.64V6.53h8.78V9.29h-4.63l2.51,3.07-3.4,3.23h5.52v2.8Z"/><path d="M222.67,9.37v9h-3.45v-9h-2.46V6.53h8.37V9.37Z"/><path d="M229.81,6.53V18.39h-3.64V6.53Z"/><path d="M242.58,18.39h-4l-2.05-4.49-1.23,1.75v2.74h-3.43V6.53h3.43v4.9l3.27-4.9h3.27l-3,4.34Z"/><path d="M248.68,18.57a5.36,5.36,0,0,1-4.08-1.66A6.16,6.16,0,0,1,243,12.47a6.42,6.42,0,0,1,1.51-4.39,5.23,5.23,0,0,1,4.18-1.74,5.34,5.34,0,0,1,4,1.64,6,6,0,0,1,1.56,4.36,6.43,6.43,0,0,1-1.58,4.53A5.27,5.27,0,0,1,248.68,18.57Zm0-2.69a1.37,1.37,0,0,0,1.32-.81,7.23,7.23,0,0,0,.41-2.94c0-2.06-.56-3.09-1.66-3.09s-1.79,1.17-1.79,3.53C246.94,14.77,247.51,15.88,248.66,15.88Z"/><path d="M255.18,18.39V15.68l3.2-2.75-2.92-3.64V6.53h8.78V9.29h-4.63l2.51,3.07-3.4,3.23h5.52v2.8Z"/><path d="M130.65,43.43V40.72l3.2-2.75-2.91-3.64V31.57h8.77v2.76h-4.62l2.5,3.07-3.4,3.23h5.52v2.8Z"/><path d="M151,31.57l-3.71,6.84v5h-3.54v-5l-4-6.84h4l2.08,3.91,2-3.91Z"/><path d="M153.13,43.43h-2.9L154,31.57h3.87l3.69,11.86h-3.6L155.56,35Z"/><path d="M163.67,43.43h-2.91l3.75-11.86h3.87l3.69,11.86h-3.59L166.09,35Z"/><path d="M177.87,43.61A5.39,5.39,0,0,1,173.79,42a6.16,6.16,0,0,1-1.57-4.44,6.48,6.48,0,0,1,1.5-4.39,5.25,5.25,0,0,1,4.19-1.73A5.33,5.33,0,0,1,182,33a6,6,0,0,1,1.56,4.36,6.39,6.39,0,0,1-1.58,4.53A5.26,5.26,0,0,1,177.87,43.61Zm0-2.69a1.38,1.38,0,0,0,1.32-.8,7.32,7.32,0,0,0,.41-2.95c0-2.06-.56-3.09-1.66-3.09s-1.79,1.18-1.79,3.53S176.71,40.92,177.86,40.92Z"/><path d="M185,43.43V31.57h7.79v2.8h-4.15v9.06Z"/><path d="M198.87,43.61A5.36,5.36,0,0,1,194.79,42a6.17,6.17,0,0,1-1.58-4.44,6.48,6.48,0,0,1,1.51-4.39,5.24,5.24,0,0,1,4.18-1.73,5.32,5.32,0,0,1,4,1.63,6,6,0,0,1,1.56,4.36,6.39,6.39,0,0,1-1.57,4.53A5.26,5.26,0,0,1,198.87,43.61Zm0-2.69a1.38,1.38,0,0,0,1.33-.8,7.36,7.36,0,0,0,.4-2.95c0-2.06-.55-3.09-1.66-3.09s-1.79,1.18-1.79,3.53S197.71,40.92,198.85,40.92Z"/><path d="M205.37,43.43V40.72L208.58,38l-2.92-3.64V31.57h8.77v2.76h-4.62l2.5,3.07-3.39,3.23h5.51v2.8Z"/><path d="M132.77,68.47h-2.91l3.76-11.86h3.87l3.69,11.86h-3.6L135.2,60Z"/><path d="M145.49,56.61V68.47h-3.64V56.61Z"/><path d="M152.69,68.66A5.39,5.39,0,0,1,148.61,67,6.2,6.2,0,0,1,147,62.56a6.44,6.44,0,0,1,1.51-4.4,5.26,5.26,0,0,1,4.18-1.73,5.33,5.33,0,0,1,4,1.63,6.07,6.07,0,0,1,1.56,4.37A6.38,6.38,0,0,1,156.75,67,5.26,5.26,0,0,1,152.69,68.66Zm0-2.7a1.37,1.37,0,0,0,1.33-.8,7.34,7.34,0,0,0,.4-2.94c0-2.06-.55-3.1-1.66-3.1S151,60.3,151,62.65,151.52,66,152.67,66Z"/><path d="M159.86,68.47V56.61h9.91V68.47h-3.64V59.36H163.5v9.11Z"/><path d="M175.54,64.16v4.31h-3.7V56.61h5.07a7.42,7.42,0,0,1,2.88.44,3.43,3.43,0,0,1,1.56,1.33,3.55,3.55,0,0,1,.58,2,3.46,3.46,0,0,1-1.18,2.74,4.57,4.57,0,0,1-3.15,1Zm-.06-2.54h1.22c1.07,0,1.61-.4,1.61-1.18s-.5-1.12-1.49-1.12h-1.34Z"/><path d="M189.83,68.47l-.67-2.33H186l-.71,2.33h-3L186,56.61h3.85l3.73,11.86Zm-3.23-4.92h1.92l-1-3.44Z"/><path d="M194,68.47V65.76l3.2-2.74-2.91-3.64V56.61H203v2.77h-4.62l2.5,3.07-3.4,3.23H203v2.79Z"/><path d="M209.6,68.66A5.39,5.39,0,0,1,205.52,67,6.19,6.19,0,0,1,204,62.56a6.49,6.49,0,0,1,1.5-4.4,5.87,5.87,0,0,1,8.22-.1,6.07,6.07,0,0,1,1.56,4.37A6.38,6.38,0,0,1,213.66,67,5.26,5.26,0,0,1,209.6,68.66Zm0-2.7a1.36,1.36,0,0,0,1.32-.8,7.3,7.3,0,0,0,.41-2.94c0-2.06-.56-3.1-1.66-3.1s-1.8,1.18-1.8,3.53S208.44,66,209.59,66Z"/><path d="M226.62,56.61l-3.71,6.84v5h-3.54v-5l-4-6.84h4l2.07,3.91,2-3.91Z"/></svg>