<svg width="172" height="109" viewBox="0 0 172 109" fill="none" xmlns="http://www.w3.org/2000/svg">
<g id="logo">
<path id="Logo" d="M172 16.2321C172 15.5743 171.164 15.8232 170.915 15.8232C170.282 15.8681 169.646 15.8681 169.013 15.8232C168.515 15.7343 160.462 14.4898 159.875 14.4187C159.288 14.3476 158.879 13.5831 158.808 13.2453C158.777 13.1359 158.723 13.0345 158.65 12.9482C158.576 12.8618 158.484 12.7926 158.381 12.7452C158.278 12.6978 158.166 12.6735 158.052 12.6739C157.939 12.6743 157.826 12.6994 157.724 12.7475C156.869 12.8727 156 12.8727 155.146 12.7475C154.648 12.7475 147.43 11.8407 146.523 11.8407C145.616 11.8407 145.687 10.8451 145.101 10.4362C144.514 10.0273 143.323 10.8451 142.949 10.8451C142.576 10.8451 133.74 9.88506 133.313 9.88506C132.886 9.88506 132.993 8.72943 132.318 8.80054C131.435 8.84508 130.551 8.84508 129.669 8.80054C129.171 8.80054 121.952 8.05383 121.277 7.98272C120.601 7.9116 119.695 6.80931 119.286 6.73819C118.575 6.69366 117.863 6.69366 117.152 6.73819C116.583 6.73819 107.338 5.90259 107 5.90259C106.663 5.90259 106.752 5.31588 106.503 4.81807C106.254 4.32027 106.005 4.81807 105.009 4.81807C103.62 4.86782 102.23 4.75444 100.867 4.48028C99.6933 4.16025 94.4663 3.66245 94.4663 3.66245C94.5207 3.3328 94.5207 2.99648 94.4663 2.66683C94.4663 2.08013 93.5596 2.66683 92.884 2.66683C91.7248 2.28269 90.6757 1.62393 89.8261 0.746713C89.3798 0.353236 88.8312 0.0943228 88.2437 0H83.7635C83.176 0.0943228 82.6274 0.353236 82.1811 0.746713C81.3315 1.62393 80.2824 2.28269 79.1232 2.66683C78.4476 2.66683 77.6298 2.08013 77.5409 2.66683C77.4865 2.99648 77.4865 3.3328 77.5409 3.66245C77.5409 3.66245 72.3139 4.16025 71.1405 4.48028C69.7776 4.75444 68.3873 4.86782 66.998 4.81807C66.0024 4.81807 65.7535 4.32027 65.5046 4.81807C65.2557 5.31588 65.3446 5.90259 65.0068 5.90259C64.669 5.90259 55.4239 6.73819 54.855 6.73819C54.1446 6.69366 53.432 6.69366 52.7216 6.73819C52.3126 6.73819 51.3881 7.89382 50.7303 7.98272C50.0725 8.07161 42.8365 8.80054 42.3387 8.80054C41.4562 8.84508 40.5721 8.84508 39.6897 8.80054C39.0141 8.80054 39.1029 9.79616 38.694 9.88506C38.2851 9.97395 29.4846 10.8807 29.0579 10.8807C28.6312 10.8807 27.4756 10.0451 26.9066 10.4718C26.3377 10.8985 26.4088 11.8763 25.4843 11.8763C24.5598 11.8763 17.3594 12.783 16.8616 12.783C16.0068 12.9083 15.1384 12.9083 14.2836 12.783C14.1808 12.7349 14.0687 12.7098 13.9551 12.7094C13.8416 12.7091 13.7293 12.7334 13.6261 12.7808C13.5229 12.8281 13.4313 12.8974 13.3575 12.9838C13.2838 13.0701 13.2297 13.1715 13.1991 13.2808C13.1991 13.6186 12.7013 14.3653 12.1324 14.4542C11.5635 14.5431 3.49187 15.7699 2.99406 15.8588C2.36074 15.9036 1.72504 15.9036 1.09172 15.8588C0.842816 15.8588 0.00720922 15.6099 0.00720922 16.2677C0.00720922 16.9255 0.0961036 18.2589 0.00720922 19.0945C-0.0816851 19.9301 0.665027 19.5034 1.50063 19.5568C2.33624 19.6101 2.99406 19.059 3.15407 19.5568C3.27087 19.9105 3.41348 20.2551 3.58076 20.5879H4.41637C4.41637 20.5879 5.66089 22.5792 6.56761 22.5436C7.47044 22.6141 8.36062 22.7994 9.21666 23.0948C9.55446 23.0948 10.799 21.7613 11.4568 21.7613C12.1146 21.7613 13.2347 22.5081 14.0347 22.5436C14.8348 22.5792 17.4483 21.2635 17.7683 21.5124C18.7188 21.9139 19.6925 22.2583 20.684 22.5436V98.9928L21.413 99.295L23.5287 98.9928V85.4097L36.8806 88.1121V101.34L37.9473 101.802L38.9963 101.34V88.4677L47.8857 90.2456V108.113L50.7303 108.7L52.366 108.113V91.099L54.855 90.6012V92.948L55.5484 93.1791L57.6996 92.948V90.0322L60.7043 89.4278V96.1126H62.8911V89.0011L63.5311 88.8766V105.607L64.5801 105.891L65.6468 105.607V86.4409L62.8911 85.9787V81.3561H109.116V85.9787L106.378 86.4409V105.607L107.445 105.891L108.494 105.607V88.8766L109.116 89.0011V96.1126H111.232V89.4278L114.219 90.0322V92.948L116.281 93.1791L117.063 92.948V90.6012L119.588 91.099V108.113L120.832 108.7L124.068 108.113V90.2278L132.958 88.4499V101.268L134.007 101.731L135.073 101.268V88.1121L148.425 85.4631V99.0461L150.203 99.3484L151.252 99.0461V22.597C152.244 22.3116 153.217 21.9673 154.168 21.5658C154.488 21.3169 157.066 22.6503 157.901 22.597C158.737 22.5436 159.804 21.8147 160.479 21.8147C161.155 21.8147 162.382 23.237 162.719 23.1481C163.575 22.8527 164.466 22.6675 165.368 22.597C166.275 22.597 167.52 20.6413 167.52 20.6413H168.355C168.523 20.3085 168.665 19.9638 168.782 19.6101C168.942 19.0412 169.6 19.6101 170.435 19.6101C171.271 19.6101 172.018 19.9835 171.929 19.1479C171.84 18.3122 172 16.9966 172 16.2321ZM119.641 64.5018L117.117 64.1995V25.6549H119.641V64.5018ZM127.002 82.9385L124.495 83.3652L127.002 82.974V82.9385ZM84.1013 29.7796V32.6065H87.9059V29.7796L92.2973 25.6549H114.272V64.1995H57.6996V25.6549H79.7099L84.1013 29.7796ZM141.438 73.409L148.55 72.3245V74.2446L141.438 73.409ZM141.011 76.467L125.366 78.8671L124.122 78.6893V76.058L130.06 75.1513L141.011 76.467ZM119.677 78.0671L117.152 77.7293V73.5868L119.677 73.889V78.0671ZM57.6996 67.3108H114.272V70.4577H57.6996V67.3108ZM54.855 25.6549V64.5551L52.366 64.8573V25.6549H54.855ZM47.8857 76.058V78.6893L46.6234 78.8671L32.2759 76.6625L43.2276 75.3469L47.8857 76.058ZM52.366 78.0671V74.2446L54.855 73.9424V77.7293L52.366 78.0671ZM54.855 67.6842V70.831L52.366 71.1333V67.9687L54.855 67.6842ZM47.8857 71.6667H47.6724L36.1872 69.8888L47.8857 68.5554V71.6667ZM23.5287 72.3245L31.8669 73.6046L23.5287 74.6002V72.3245ZM23.5287 79.6494L31.7781 81.0006L23.5287 82.1384V79.6494ZM44.97 82.9385L47.4768 83.3296L44.97 82.9029V82.9385ZM52.366 83.2585L54.855 82.6896V84.5563L52.366 84.1297V83.2585ZM57.6996 77.7293V73.5868H114.272V77.7293H57.6996ZM119.641 83.2585V84.2008L117.117 84.5563V82.6007L119.641 83.2585ZM148.479 79.7027V82.1029L140.229 81.0006L148.479 79.7027ZM125.633 71.4889L124.122 71.3111V68.1642L137.118 69.7288L125.633 71.4889ZM119.641 70.7777L117.117 70.4577V67.3108L119.641 67.6309V70.7777ZM47.8857 25.6549V65.4085L24.7732 68.182L23.4931 67.9864V24.6593L47.8857 25.6549ZM57.6996 85.1964V82.0317L60.7043 81.3561V85.6231L57.6996 85.1964ZM111.285 81.3561L114.272 82.0317V85.1075L111.285 85.6231V81.3561ZM148.479 67.9864L124.122 64.9996V25.6549L148.479 24.6593V67.9864Z" fill="#8AAA66"/>
</g>
</svg>
