<?xml version="1.0" encoding="utf-8"?>
<!-- Generator: Adobe Illustrator 27.9.0, SVG Export Plug-In . SVG Version: 6.00 Build 0)  -->
<svg version="1.1" id="Layer_1" xmlns="http://www.w3.org/2000/svg" xmlns:xlink="http://www.w3.org/1999/xlink" x="0px" y="0px"
	 viewBox="0 0 90.3 90.3" style="enable-background:new 0 0 90.3 90.3;" xml:space="preserve">
<style type="text/css">
	.st0{fill:#FFFFFF;}
</style>
<path class="st0" d="M45.2,90.3L0,45.2L45.2,0l45.2,45.2L45.2,90.3z M5,45.2l40.2,40.2l40.2-40.2L45.2,5L5,45.2z"/>
<path id="Vector" class="st0" d="M62.7,34.7c0-1.9-1.6-3.5-3.5-3.5H31.1c-1.9,0-3.5,1.6-3.5,3.5v20.9c0,1.9,1.6,3.5,3.5,3.5h28.1
	c1.9,0,3.5-1.6,3.5-3.5V34.7z M59.2,34.7l-14.1,8.7L31,34.7H59.2z M59.2,55.6H31.1V38.2l14.1,8.7l14.1-8.7v17.4H59.2z"/>
</svg>
