<?xml version="1.0" encoding="utf-8"?>
<!-- Generator: Adobe Illustrator 27.9.0, SVG Export Plug-In . SVG Version: 6.00 Build 0)  -->
<svg version="1.1" id="Layer_1" xmlns="http://www.w3.org/2000/svg" xmlns:xlink="http://www.w3.org/1999/xlink" x="0px" y="0px"
	 viewBox="0 0 90.3 90.3" style="enable-background:new 0 0 90.3 90.3;" xml:space="preserve">
<style type="text/css">
	.st0{fill:#FFFFFF;}
</style>
<path id="Vector" class="st0" d="M61,51.2l-8.3-3.7l0,0c-0.4-0.2-0.9-0.3-1.4-0.2c-0.5,0-0.9,0.2-1.3,0.5l-0.1,0.1l-4.3,3.6
	c-2.7-1.3-5.5-4.1-6.8-6.8l3.7-4.3l0.1-0.1c0.3-0.4,0.4-0.8,0.4-1.3s0-0.9-0.2-1.4l0,0l-3.7-8.3c-0.2-0.6-0.7-1-1.2-1.3
	s-1.1-0.4-1.7-0.4c-2.4,0.3-4.6,1.5-6.2,3.3c-1.6,1.8-2.5,4.1-2.4,6.5c0,14,11.4,25.3,25.3,25.3c2.4,0,4.7-0.9,6.5-2.4
	c1.8-1.6,3-3.8,3.3-6.2c0.1-0.6,0-1.2-0.4-1.7C62.1,51.9,61.6,51.5,61,51.2z M52.9,59.9c-6,0-11.7-2.4-15.9-6.6s-6.6-9.9-6.6-15.9
	c0-1.7,0.6-3.4,1.7-4.7s2.7-2.1,4.4-2.4l0,0l3.7,8.3L36.6,43l-0.1,0.1c-0.3,0.4-0.4,0.9-0.5,1.4s0.1,1,0.3,1.4
	c1.6,3.3,4.9,6.5,8.2,8.1c0.4,0.2,0.9,0.3,1.4,0.3s1-0.2,1.4-0.5l0.1-0.1l4.3-3.6l8.3,3.7l0,0c-0.2,1.7-1.1,3.3-2.4,4.4
	C56.3,59.3,54.6,59.9,52.9,59.9z"/>
<path class="st0" d="M45.2,90.3L0,45.2L45.2,0l45.2,45.2L45.2,90.3z M5,45.2l40.2,40.2l40.2-40.2L45.2,5L5,45.2z"/>
</svg>
