<svg width="86" height="85" viewBox="0 0 86 85" fill="none" xmlns="http://www.w3.org/2000/svg">
<g id="stat__icon" clip-path="url(#clip0_228_48)">
<path id="Vector" d="M85.462 30.8836C85.0132 29.513 84.17 28.304 83.0372 27.4069C81.9044 26.5098 80.532 25.9642 79.0906 25.8378L58.0494 24.0246L49.8175 4.48134C49.2513 3.1523 48.3049 2.0187 47.0964 1.22181C45.888 0.424925 44.4708 0 43.0216 0C41.5724 0 40.1553 0.424925 38.9468 1.22181C37.7383 2.0187 36.792 3.1523 36.2257 4.48134L27.9827 24.0246L6.9416 25.8378C5.4923 25.9573 4.11073 26.5006 2.97022 27.3996C1.82971 28.2985 0.981072 29.513 0.530788 30.8906C0.0805037 32.2683 0.0486297 33.7477 0.439165 35.1433C0.8297 36.539 1.62525 37.7886 2.72599 38.7355L18.7173 52.6372L13.9184 73.3206C13.5893 74.729 13.6842 76.2028 14.1912 77.5578C14.6983 78.9128 15.595 80.0888 16.7692 80.9388C17.9434 81.7889 19.3431 82.2752 20.7933 82.337C22.2434 82.3989 23.6797 82.0335 24.9225 81.2865L43.0105 70.3416L61.0985 81.2865C62.3413 82.0323 63.7771 82.3967 65.2266 82.3343C66.6761 82.2719 68.075 81.7854 69.2485 80.9356C70.4221 80.0857 71.3183 78.9102 71.8253 77.5559C72.3322 76.2016 72.4274 74.7285 72.099 73.3206L67.3001 52.6372L83.2914 38.7355C84.3892 37.7852 85.1809 36.533 85.567 35.1361C85.9532 33.7392 85.9166 32.2598 85.462 30.8836ZM60.8217 46.5579C59.8093 47.4354 59.0562 48.5712 58.6432 49.8432C58.2302 51.1152 58.1729 52.4753 58.4776 53.7773L62.6822 71.9157L46.8312 62.3242C45.6801 61.6259 44.3583 61.2565 43.0105 61.2565C41.6628 61.2565 40.341 61.6259 39.1899 62.3242L23.3389 71.9157L27.5435 53.7773C27.8482 52.4753 27.7909 51.1152 27.3779 49.8432C26.9649 48.5712 26.2118 47.4354 25.1994 46.5579L11.1388 34.3369L29.6476 32.7408C30.9879 32.6265 32.271 32.148 33.3573 31.3576C34.4436 30.5671 35.2915 29.4949 35.8086 28.2577L43.0105 11.16L50.2125 28.2577C50.7296 29.4949 51.5775 30.5671 52.6638 31.3576C53.7501 32.148 55.0332 32.6265 56.3735 32.7408L74.8823 34.3369L60.8217 46.5579Z" fill="#8AAA66"/>
</g>
<defs>
<clipPath id="clip0_228_48">
<rect width="85" height="85" fill="white" transform="translate(0.5)"/>
</clipPath>
</defs>
</svg>
