<svg width="86" height="85" viewBox="0 0 86 85" fill="none" xmlns="http://www.w3.org/2000/svg">
<g id="stat__icon" clip-path="url(#clip0_228_53)">
<path id="Vector" d="M72.75 8.5H64.25V4.25C64.25 3.12283 63.8022 2.04183 63.0052 1.2448C62.2082 0.447766 61.1272 0 60 0C58.8728 0 57.7918 0.447766 56.9948 1.2448C56.1978 2.04183 55.75 3.12283 55.75 4.25V8.5H30.25V4.25C30.25 3.12283 29.8022 2.04183 29.0052 1.2448C28.2082 0.447766 27.1272 0 26 0C24.8728 0 23.7918 0.447766 22.9948 1.2448C22.1978 2.04183 21.75 3.12283 21.75 4.25V8.5H13.25C9.86849 8.5 6.62548 9.8433 4.23439 12.2344C1.8433 14.6255 0.5 17.8685 0.5 21.25V72.25C0.5 75.6315 1.8433 78.8745 4.23439 81.2656C6.62548 83.6567 9.86849 85 13.25 85H72.75C76.1315 85 79.3745 83.6567 81.7656 81.2656C84.1567 78.8745 85.5 75.6315 85.5 72.25V21.25C85.5 17.8685 84.1567 14.6255 81.7656 12.2344C79.3745 9.8433 76.1315 8.5 72.75 8.5ZM77 72.25C77 73.3772 76.5522 74.4582 75.7552 75.2552C74.9582 76.0522 73.8772 76.5 72.75 76.5H13.25C12.1228 76.5 11.0418 76.0522 10.2448 75.2552C9.44777 74.4582 9 73.3772 9 72.25V42.5H77V72.25ZM77 34H9V21.25C9 20.1228 9.44777 19.0418 10.2448 18.2448C11.0418 17.4478 12.1228 17 13.25 17H21.75V21.25C21.75 22.3772 22.1978 23.4582 22.9948 24.2552C23.7918 25.0522 24.8728 25.5 26 25.5C27.1272 25.5 28.2082 25.0522 29.0052 24.2552C29.8022 23.4582 30.25 22.3772 30.25 21.25V17H55.75V21.25C55.75 22.3772 56.1978 23.4582 56.9948 24.2552C57.7918 25.0522 58.8728 25.5 60 25.5C61.1272 25.5 62.2082 25.0522 63.0052 24.2552C63.8022 23.4582 64.25 22.3772 64.25 21.25V17H72.75C73.8772 17 74.9582 17.4478 75.7552 18.2448C76.5522 19.0418 77 20.1228 77 21.25V34Z" fill="#8AAA66"/>
</g>
<defs>
<clipPath id="clip0_228_53">
<rect width="85" height="85" fill="white" transform="translate(0.5)"/>
</clipPath>
</defs>
</svg>
