<svg width="86" height="85" viewBox="0 0 86 85" fill="none" xmlns="http://www.w3.org/2000/svg">
<g id="stat__icon" clip-path="url(#clip0_228_58)">
<g id="Group">
<path id="Vector (Stroke)" fill-rule="evenodd" clip-rule="evenodd" d="M85.3049 2.51747C85.9515 4.44845 84.9102 6.53794 82.9792 7.18447L74.28 10.0972C72.6159 10.6515 71.1961 11.7665 70.2631 13.2516C69.3301 14.7368 68.9419 16.4999 69.1648 18.2396C69.1666 18.2539 69.1684 18.2681 69.17 18.2824C69.8094 23.7812 65.5298 28.7217 59.8799 28.7217H58.405C56.7935 28.7217 55.4777 29.8351 55.1961 31.3134L55.191 31.3401L54.3759 35.4541C53.9802 37.4516 52.0401 38.7501 50.0425 38.3544C48.045 37.9587 46.7465 36.0185 47.1422 34.021L47.9549 29.919C48.921 24.8847 53.3457 21.3475 58.405 21.3475H59.8799C61.056 21.3475 61.9744 20.3194 61.8468 19.1486C61.4144 15.723 62.1817 12.2531 64.0187 9.32892C65.8602 6.39755 68.6624 4.19654 71.9465 3.10185C71.9475 3.10152 71.9485 3.10118 71.9495 3.10085L80.6379 0.191776C82.5689 -0.454757 84.6584 0.586492 85.3049 2.51747ZM37.7389 0.267601C39.6281 -0.492648 41.7758 0.422469 42.536 2.31157L43.8168 5.49414L43.8252 5.51509C46.0067 11.0331 42.5478 17.1634 36.7267 18.1868C36.6877 18.1937 36.6487 18.1999 36.6096 18.2055C35.7775 18.3244 35.0403 19.115 35.0403 20.1055V23.094C35.0403 25.1304 33.3895 26.7811 31.3531 26.7811C29.3168 26.7811 27.666 25.1304 27.666 23.094V20.1055C27.666 15.6111 30.9269 11.6096 35.4865 10.9172C36.704 10.6799 37.4173 9.37838 36.9705 8.23409L35.695 5.06467C34.9347 3.17557 35.8498 1.02785 37.7389 0.267601ZM50.9531 3.68812C50.9531 1.65178 52.6039 0.00100108 54.6403 0.00100108H54.6791C56.7154 0.00100108 58.3662 1.65178 58.3662 3.68812C58.3662 5.72446 56.7154 7.37524 54.6791 7.37524H54.6403C52.6039 7.37524 50.9531 5.72446 50.9531 3.68812ZM8.26004 7.5693C8.26004 5.53296 9.91083 3.88218 11.9472 3.88218H11.986C14.0223 3.88218 15.6731 5.53296 15.6731 7.5693C15.6731 9.60565 14.0223 11.2564 11.986 11.2564H11.9472C9.91083 11.2564 8.26004 9.60565 8.26004 7.5693ZM78.1215 26.9752C78.1215 24.9389 79.7722 23.2881 81.8086 23.2881H81.8474C83.8837 23.2881 85.5345 24.9389 85.5345 26.9752C85.5345 29.0115 83.8837 30.6623 81.8474 30.6623H81.8086C79.7722 30.6623 78.1215 29.0115 78.1215 26.9752ZM20.1673 36.3086C22.0862 36.9901 23.0893 39.0981 22.4078 41.017L10.2496 75.252L44.4825 63.1265C46.402 62.4466 48.5092 63.4515 49.1891 65.371C49.869 67.2905 48.8641 69.3977 46.9446 70.0776L5.41585 84.7873C4.07549 85.262 2.58158 84.9237 1.57652 83.9178C0.571455 82.9119 0.234392 81.4178 0.710268 80.0778L15.4588 38.5492C16.1403 36.6302 18.2483 35.6271 20.1673 36.3086ZM67.3098 48.7699C68.3333 42.9489 74.4636 39.4899 79.9816 41.6714L80.0026 41.6798L83.1851 42.9606C85.0742 43.7208 85.9894 45.8686 85.2291 47.7577C84.4689 49.6468 82.3211 50.5619 80.432 49.8016L77.2704 48.5292C77.2678 48.5282 77.2651 48.5271 77.2625 48.5261C76.1132 48.0774 74.8054 48.7989 74.5765 50.0261C73.8474 54.5213 69.9387 57.8306 65.3912 57.8306H62.4026C60.3663 57.8306 58.7155 56.1798 58.7155 54.1435C58.7155 52.1071 60.3663 50.4564 62.4026 50.4564H65.3912C66.3396 50.4564 67.155 49.7514 67.2988 48.8361C67.3023 48.814 67.306 48.7919 67.3098 48.7699ZM78.1215 73.5494C78.1215 71.513 79.7722 69.8623 81.8086 69.8623H81.8474C83.8837 69.8623 85.5345 71.513 85.5345 73.5494C85.5345 75.5857 83.8837 77.2365 81.8474 77.2365H81.8086C79.7722 77.2365 78.1215 75.5857 78.1215 73.5494Z" fill="#8AAA66"/>
<path id="Vector (Stroke)_2" fill-rule="evenodd" clip-rule="evenodd" d="M22.2964 41.244C22.296 41.2436 22.3001 41.24 22.3097 41.234C22.3015 41.2414 22.2967 41.2443 22.2964 41.244ZM22.3202 41.2279C22.3849 41.1922 22.5923 41.1092 23.0714 41.1063C23.8271 41.1016 24.9614 41.3126 26.442 41.9056C29.3899 43.0864 33.0305 45.509 36.5098 48.9883C39.9891 52.4676 42.4116 56.1081 43.5924 59.056C44.1855 60.5366 44.3964 61.6709 44.3918 62.4266C44.3889 62.9058 44.3059 63.1131 44.2701 63.1778C44.2054 63.2135 43.9981 63.2965 43.5189 63.2995C42.7632 63.3041 41.6289 63.0931 40.1483 62.5001C37.2004 61.3193 33.5599 58.8967 30.0806 55.4174C26.6013 51.9382 24.1787 48.2976 22.9979 45.3497C22.4049 43.8691 22.1939 42.7348 22.1985 41.9791C22.2015 41.5 22.2845 41.2926 22.3202 41.2279ZM44.2541 63.2016C44.2537 63.2013 44.2567 63.1965 44.264 63.1884C44.2581 63.1979 44.2544 63.202 44.2541 63.2016ZM44.2807 63.1717C44.2888 63.1644 44.2936 63.1614 44.2939 63.1618C44.2943 63.1621 44.2902 63.1658 44.2807 63.1717ZM22.3263 41.2174C22.3322 41.2078 22.3359 41.2037 22.3363 41.2041C22.3366 41.2045 22.3337 41.2092 22.3263 41.2174ZM29.184 35.0601C33.261 36.6932 37.7128 39.7625 41.7241 43.7739C45.7355 47.7853 48.8049 52.237 50.4379 56.314C51.2518 58.3459 51.7783 60.4573 51.7659 62.4718C51.7534 64.509 51.1739 66.7068 49.4865 68.3942C47.7991 70.0816 45.6013 70.6611 43.5641 70.6736C41.5496 70.6859 39.4382 70.1595 37.4064 69.3456C33.3293 67.7125 28.8776 64.6432 24.8662 60.6318C20.8548 56.6204 17.7855 52.1687 16.1524 48.0917C15.3385 46.0598 14.8121 43.9485 14.8244 41.9339C14.8369 39.8967 15.4165 37.6989 17.1038 36.0115C18.7912 34.3242 20.989 33.7446 23.0262 33.7321C25.0408 33.7198 27.1521 34.2463 29.184 35.0601Z" fill="#8AAA66"/>
</g>
</g>
<defs>
<clipPath id="clip0_228_58">
<rect width="85" height="85" fill="white" transform="translate(0.5)"/>
</clipPath>
</defs>
</svg>
