<svg id="OBJECTS" xmlns="http://www.w3.org/2000/svg" viewBox="0 0 354.72 82.96"><defs><style>.cls-1{fill:#f07167;}.cls-2{fill:#fff;}</style></defs><path class="cls-1" d="M309.15,32.76a13.57,13.57,0,0,1,1.35-.48,5,5,0,0,1,1.7-.12l-1.27.6h2.17c.15.35.25.57.38.86l-2.26.57.07.39,1.79-.33-.56.38c1.26.72.6,1.35-.21,2l2.77-1.25V36.5l-1.24.63c0,.08.05.16.07.24l2.54-.85.07.19-2.44,1,.07.26,2.32-.74.06.24-2.22.85c.18.21.38.46.61.75v.55l1.32-.2c.05.09.17.26.29.44h0c-.21,1-.87,1-1.73.83L316,40c-.72,0-1.38-.27-1.42.86,0,.17-.39.33-.67.54,0,.08-.05.31-.08.48l3.15-.21,0,.18-1.35.32v.21l1.16.14-1.08.48.45.38-.71.68,1.7-.2-.4.64h1.6v.24l-1.4.13v.19l2.22.24-.6.6.69-.06c-.54.4-.9,1.36-1.92.66l.67-.18-.17-.19a3.19,3.19,0,0,0-2.46,1.47l.11.18c.14-.12.28-.26.43-.37s.38-.23.56-.34l.66-.42c0,.33.11.71.2,1.36.24-.27.37-.54.54-.58.38-.1.89-.25,1.15-.05s.28.8.32,1.24c0,.17-.2.37-.44.5l.08-.56-.89.09v1.41a8.51,8.51,0,0,1-.39.82c-.16.26-.37.49-.55.73l.06-.68-.42-.64-1,.52c-.1-.2-.22-.4-.34-.63-1.8,1.2-3.75,1.35-5.66,1.78h.73l.06.23c-.48.47-1.32-.23-1.79.28l.07.21,1,.06.05.63c-.29-.69-.8-.11-1.2-.22a5.56,5.56,0,0,0-1.84.14,1.07,1.07,0,0,1-.45-.06c0-.6-.35-.32-.58-.31l-1.75.1s-.07.05-.11.09l.24.41-.37.16a.84.84,0,0,0,.71.26,1.68,1.68,0,0,1,1.64.67c.32.33.27.4.63.19s.45-.27.43.22l-1.05.51,0,.23h1.43l-.45-.76.93-.61c.15.26.31.53.47.82l-.6.22,0,.13h.89l-.08-.3,2.21-.47,0-.26a2.34,2.34,0,0,1-.65,0c-.13,0-.23-.25-.33-.38.52-.3,0-.51-.05-.77.11-.23.21-.47.4-.89.07.36.14.6.17.85s0,.58.06.91l.93-.12,0-.19-.75-.19,1.48-.56.23.45c.1-.1.27-.19.29-.31.08-.37.1-.76.15-1.2l-1.32.09a.93.93,0,0,1,1.28-.41c.21.09.31.49.57.94l1-.65v.19L316,52l-.09-.26.55.47.41-.21-.58.88.78-.08c.11.93-.08,1.69-1,2l.5.07-.47.52,2.91.54c-.21.32-.28.44-.42.66l.49,0,.09.19c-.35.2-.69.54-1.06.57-.8.07-1,.55-1,1.36,0,.19,0,.38,0,.5L315,61v.12l.74-.31.09,1.17-.8-.21.57.76-.71-.13a1,1,0,0,0-.39,0c-.21.93-1,.6-1.6,1l.4.14-.88.94a1.22,1.22,0,0,1-1.6.24c-.73-.44-1.24.17-2,.23l.86.52-1.56-.31c-.22.36-.39.66-.6,1l.62.63c-.5,0-.88-.2-.94-.71l-.77-.28,0-.22-1.78.83,0,.21h2.12v.11L304.3,67c.06.15.14.22.21.22.82-.06,1.63-.1,2.44-.19a10.34,10.34,0,0,0,1.23-.26l.34-.42.13.12-.27.44c1.23.36,2.38-.12,2.41-1.06l.87.35-.64.32.52.51-.84.16c-.05-.1-.12-.28-.16-.27-.38.08-.75.2-1.13.29s-.89.19-1.34.29l.06.32,2.41-.45c-.29.24-.56.62-.88.68-1,.18-2,.26-3,.35-.42,0-.82-.5-1.29,0-.18.19-.49.22-.85.37l-.9-.24c-.09.42-.17.77-.24,1.12h-.1c0-.27-.05-.55-.08-.93a2.42,2.42,0,0,1-1.92,0c-.53-.25-1.29.13-1.93.41L301,69l0,.22a8.18,8.18,0,0,1-1.42.41c-2,.21-4,.34-6,.55-.86.09-1.71.34-2.58.44a11.65,11.65,0,0,1-1.43-.12c-.94,0-1.87,0-2.81,0s-2,.2-3,.3l-4.63.41.15.42c-.07.06-.11.12-.13.11a3.07,3.07,0,0,0-2.1-.18,9.21,9.21,0,0,1-2.59.19c-1,.08-2,.27-3,.32-1.66.08-3.32.1-5,.13-.58,0-1.17,0-1.75,0A1.25,1.25,0,0,1,264,72l3.95-.32v-.18h-2.34l0-.22c.63-.12,1.26-.29,1.9-.37,1.05-.13,2.12-.26,3.18-.31.77,0,1.55.07,2.33.1.11,0,.25,0,.34,0a9,9,0,0,1,3.22-.61c.06,0,.11-.08.14-.11l-.62-.43.12-.26-11.31.43V70h4.81a63.23,63.23,0,0,1-14.55.15v-.2h5.61v-.29c-1.31,0-2.63,0-3.95,0-1.06,0-2.12.15-3.17.22-.58,0-1.15.08-1.72.09-1.54,0-3.07,0-4.61.1-.19,0-.37.23-.67.43l2.62-.41v.12l-1.06.33.07.27a3.64,3.64,0,0,1,.79-.14c.61,0,1.22.1,1.89.15v1.28l2.09-.68,0-.19h-1.5l0-.22a2.18,2.18,0,0,1,.72-.29c1.4,0,2.8,0,4.19.12,1.14.07,2.27.26,3.41.33a3,3,0,0,0,2.13-.41c.31-.22,1,.27,1.53.44l0,.23-.43.25.54.48-.62.21.78.67-.66.3,0,.22h2.23v-.21l-1-.28A7,7,0,0,1,269,73l-.63.1c.19.39.19.39,2.14.2l-.6-.08-.58-.09,0-.23h3.06l-.47.35.43.39v.21l-2.32.19.27.45-.94-.24c-.09-.19-.16-.47-.24-.48-.57,0-1.23-.22-1.69,0-1.24.73-2.39-.13-3.58-.06s-2.63.07-3.95.1a8,8,0,0,1-2.62,0,2.29,2.29,0,0,0-1.7.11l.57.43,0,.18-4.36-.42.71-.42c0-.07-.07-.15-.09-.15a14.77,14.77,0,0,0-2.81.68,6.21,6.21,0,0,1-2.37.49c-.07,0-.15-.11-.3-.23l.67-.13v-.18a9.54,9.54,0,0,0-2.55-.09,15.75,15.75,0,0,1-5.35-.16c-.68-.08-1.49-.5-2.07.41a.5.5,0,0,1-.54,0c-.66-.6-1.26.2-1.91.07a3,3,0,0,0-.95.18l0-.26,1.81-.56v-.11a7.3,7.3,0,0,0-.81,0,3.2,3.2,0,0,1-.87.07c1.72-1.1,3.58-.25,5.37-.59-.37,0-.73,0-1.1-.09s-.69-.12-1-.18l0-.2,4.66-.25V72.3l-.43-.13,0-.19c.27,0,.54-.08.81-.1a2.51,2.51,0,0,0,1-.16c-.65-.08-1.3-.21-2-.25a19.87,19.87,0,0,0-2.78,0c-.28,0-1.13-.36-.79.73,0,0-.22.28-.32.27a2.32,2.32,0,0,1-.79-.21c0-.5-.22-.29-.4-.27-.51,0-1,.1-1.51.1-.16,0-.32-.12-.52-.21l3.18-.38,0-.26c-1.5.14-3-.16-4.48.79h1a2.33,2.33,0,0,1-2,.41,2.79,2.79,0,0,0-2.33,0,2.53,2.53,0,0,1-.67.11l.7-.54-.08-.11c-.59.18-1.22.61-1.74.47a3.76,3.76,0,0,0-1.24-.07c-1,.06-1.89.23-2.84.29s-2.06,0-3.09.1a1.91,1.91,0,0,1-1.38-.18c-.05,0-.18.06-.43.14l.67.23,0,.21c-3.16-.69-6.34-.39-9.51-.43v.29h1.44c-.78,1-1.55-.08-2.3.18l.36-.26,0-.23-6.16.48,0,.11a1.72,1.72,0,0,0-.6-.28c-.76,0-1.52,0-2.29,0s-1.52.15-2.27.11c-1-.06-2-.27-3.06-.34a2.26,2.26,0,0,0-1.25.25,2.59,2.59,0,0,1-2.57-.05l.66-.21,0-.13-1.14.18.35.34c-.12.1-.26.31-.37.29-.5-.06-1-.24-1.51-.26-.26,0-.53.28-.81.35-1,.24-2,.46-3,.68-.37.08-.74.1-1.1.19-.09,0-.15.22-.11.16a8.42,8.42,0,0,0-1.14,0c-.51.07-1,.25-1.51.29-.19,0-.4-.23-.53-.52h1.09v-.13l-.62-.14,1.36-.74,0-.31h-2.39l.38-.18c-1.07.11-2,.25-3,.3-.5,0-1-.18-1.52-.15-.88,0-1.7-.44-2.57-.33s-1.82.36-2.73.51-1.56.21-2.34.33a30.42,30.42,0,0,0-3.78.75l.91.15,0,.15-3.05.29c.05.08.13.2.22.32l-1,.81.31.38-2.77-.48.94-.33,0-.17-2.09-.51-.12.27.8.65a3.64,3.64,0,0,1-.83.25,7.46,7.46,0,0,1-1.15-.11l.94-.59c-.51-1.13-1.22-.36-1.85-.35a5.8,5.8,0,0,0-.89.17c-.15.76-2.19.85-3,0,1.3.71,2.43-.18,3.63-.45-1.74-.12-3.48,0-5.2-.23v-.24h3.34V74l-.47-.14,0-.21c.72-.49,1.61.23,2.44-.45-.27.57-.59,1,.12,1a6.64,6.64,0,0,1,1,.1c.77.13,1.09-.28,1-1.22l-1.6-.22a52.63,52.63,0,0,0,8.21-1.5c-1.12-.71-2.33-.17-3.49-.32a20,20,0,0,0-3.57.18l1.3.79a2.29,2.29,0,0,0-.08.28c-1.45-1.44-3.16-1-4.8-1.07,0,.49.84-.1.54.67l0,0-1.45-.45.22-.22c-.57.44-1.31-.86-1.82.22a.2.2,0,0,1-.19.06,3.43,3.43,0,0,0-2.18-.24c-.81,0-1.62.07-2.44.09l-4.39,0c-.29,0-.62-.2-.85.32-.07.16-.69.12-1,0a2.26,2.26,0,0,0-1.91.27c-.47-.7-1-.24-1.55-.25l0,.23H139c.44,0,.88.07,1.32.09a2.35,2.35,0,0,1,.53,0c.1,0,.18.19.27.29-.1.09-.18.24-.29.27-.29.08-.72-.16-.74.48,0,0-.08,0-.12,0a4.89,4.89,0,0,0-1.75,0c-1,.37-2-.33-3,0-.4.15-1-.32-1.5-.52l4.38-.26v-.23h-3.67c-.83,0-1.67,0-2.5-.06L125.22,72l-3-.09c-.18,0-.36,0-.75.07.43.32.69.53.91.7a8.46,8.46,0,0,1-1.24.37c-.17,0-.37-.27-.55-.26a14,14,0,0,0-1.82.16c-.33,0-.65.29-1,.28-1.14-.06-2.27-.24-3.4-.28a9.2,9.2,0,0,0-2.09.2c-.32,0-.63.47-.91.42a4.12,4.12,0,0,1-1.15-.52,3.62,3.62,0,0,1-1,.41c-1.68.07-3.36.08-5,.1-1.19,0-2.38,0-3.44,0l.48.13c-.47.1-.86.19-1.24.25-.08,0-.17-.12-.25-.18l.32-.36-3.81.39,0,.14,1.41.13-.49.66a4.14,4.14,0,0,0-3.4-.93c0,.31.07.65.11,1l-.12.07-.51-1.09c-.57,0-1.26,0-2,0-.86-.06-1.72-.2-2.58-.29a5.66,5.66,0,0,0-3.24.39c-.2.1-.5-.07-.75-.12v-.21l.83-.16v-.11a6.1,6.1,0,0,0-1.55.21,4.85,4.85,0,0,1-3.59-.1l1.36-.16v-.23H77.36l0-.36a3.75,3.75,0,0,1,1.26-.19,4.07,4.07,0,0,0,2.51,0c.4-.18,1,.13,1.44.21a2,2,0,0,0,.35,0,19.56,19.56,0,0,0,2.54,0c1.45-.18,2.85.28,4.29.24a18,18,0,0,1,1.88.32c.74.06,1.49,0,2.28,0-.56-1-.84-1.1-1.88-.68l1.1.39,0,.1-1.86-.32v-.23l1.41-.44H87.75c0-.51-.4-.16-.68-.11s-.59.1-.89.13a6,6,0,0,1-.6,0c-.46-.13-1.08-.53-1.31-.33-.41.35-.69.07-1,.06-1,0-2.09-.08-3.14-.17-1.47-.14-2.93-.34-4.4-.5-.76-.08-1.52-.13-2,.75-.07.12-.29.12-.55.21l.64-.85a3.69,3.69,0,0,0-.92-.18c-1.38.11-2.75.24-4.12.38-.51.05-1,.16-1.53.21a15.22,15.22,0,0,1-2.87.07l.68-.36-.72-1.63c.52.07.91.71,1.52.48.1,0,.26.1.48.21l-.75.38c2.42.56,4.76-.65,7.15.08v-.23l-2.64-.3,0-.24a1.66,1.66,0,0,0,.49.07,5.42,5.42,0,0,0,.65-.14h9.1A40.8,40.8,0,0,0,76,69.66c-.79,0-1.57-.1-2.35,0s-1.64.21-2.46.32c-.11,0-.25.06-.34,0a2.56,2.56,0,0,0-2.54-.08c-.23.11-.63-.23-.95-.36-.57-.12-1.2-.07-1.83-.14a11.2,11.2,0,0,1-1.33-.4c-.19,0-.55-.17-.31.35-.63.2-.63.2-1.86-.41a2.8,2.8,0,0,1-.72.54,6.72,6.72,0,0,1-1.66.29c-.43,0-.91-.33-1.27-.19-.69.26-1.34,0-2,0a12.59,12.59,0,0,1-1.62.21c.9-1,2.07-.06,3-.6-.46-.59-.53-.59-1-.21a12.55,12.55,0,0,0-1.57-.55C53,68,50.7,67.59,48.43,67.24c-.9-.14-1.82-.11-2.73-.18-.54,0-1.09-.13-1.83-.23l1-.42A18.45,18.45,0,0,0,42.5,65,12.39,12.39,0,0,0,40,64.44a9,9,0,0,1-2-.52l3.24.23-.38-.31c.51-.08,1.18,0,1.46-.27.66-.75,1.24-.1,1.86-.11-.46-1-1.41-.77-2-.69-.91.13-1.81.09-2.71.22l-1,.16,0-.36c.57-.09,1.14-.16,1.71-.29a8.7,8.7,0,0,0,1-.38c.11,0,.23,0,.35,0,.71,0,1.48.29,2-.64a25.5,25.5,0,0,0-2.77,0,23.6,23.6,0,0,0-2.59.55l-.4,1.58c-.71-1.34-1.67-.9-2.64-1,.05.36,0,.74.15.91.42.5.18.61-.23.72a1.62,1.62,0,0,0-.35.18l-1-1.13.26-.2,1.09.6c-.11-.55-.17-.83-.24-1.16-.58-.08-1.17-.17-1.77-.24s-.84-.5-.47-1.19l-.54.16L32,61.2a3.87,3.87,0,0,1,.62-.54,3.07,3.07,0,0,1,1-.32c.77-.09,1.55-.11,2.32-.16.49,0,1,0,1.45-.07,1.4-.11,2.8-.23,4.19-.37,1.11-.11,2.22-.26,3.34-.38a5.66,5.66,0,0,0,1.61-.31l-2.78-.16c-.1-.1-.19-.29-.31-.31-.83-.15-1.67-.21-2.5-.4a19.54,19.54,0,0,1-1.91-.65c-.8-.25-1.6-.48-2.41-.71a.12.12,0,0,0-.13,0l-1.46,1.1a1.91,1.91,0,0,1-1.34-1.53l.85-.82h0L36,55.29c-.2-.15-.48-.38-.82-.66l.49-.79-.62-.34,2-.18v-.25L36.47,53l-2.4-.18a7.82,7.82,0,0,1-1.53-.2,20,20,0,0,1-1.94-.82l1.88-1.54-1.61-1.43c1.36-.38,2.72-.71,4.05-1.13A21.18,21.18,0,0,1,39,46.89c1.33-.16,2.65.14,4,0v-.29l-8.25-1.3-.34-.45a13.1,13.1,0,0,0,5.13-.21c-.68-.24-1.25-.46-1.83-.64-.25-.08-.57-.22-.75-.11-1,.66-2,0-3,0l2.59-.31V43.4l-3-.17v-.29l2.82-.47L36,41.92l2.64-.22-.47-.39a7.2,7.2,0,0,0,5.25-1.6L38.55,40h0c-.16-.14-.33-.27-.5-.4l5.69-.68v-.25l-4.33-1,0-.28h5l.08-.32-.81-.62,1.3-1-.08-.27a9.63,9.63,0,0,1-5.77,0h5v-.22l-3.74-.42L44.4,34c-1.37-1.26-2.84-.4-4.33-.82L41.55,33l-.29-.37h1v-.33l-5,.32v-.18l3.74-.41s0,0,0-.06l-.07,0-.2-.2h1.28l0-.21a11,11,0,0,0-1.24-.36c-.58-.1-1.18-.13-1.77-.18a7.31,7.31,0,0,1-1.5-.24l9.33-1.39v-.18l-8.15-.37,0-.14,1-.22-1-.16L41.12,28v-.39H39.34l0-.18.44-.32-.59-.62c.16-.48.32-1,.51-1.55l-.66.14,0-.18,2.92-.47c.07.12.05.08,0,0l-.09-.13h1.06l-.52.2,0,.13,3-.21v-.17h-2l0-.11.88-.3L43,23.5l0-.18,3.56-1.08,0-.32c-.4,0-.8,0-1.2.07a7.18,7.18,0,0,0-1.31.23,8,8,0,0,0-1.09.56l-.11-.32c.93-.42,1.85-.86,2.79-1.24.56-.22.75-.57.46-1.43,2-.12,4-.19,5.92-.39.46,0,.89-.49,1.33-.74l-1.49-.27.41-.36h-9l.33-.46L41.23,18A1.47,1.47,0,0,1,42.56,17c.4-.05.86.16,1.07-.56.06-.21.67-.2,1-.28s1,.2.94-.73c0-.16.65-.36,1-.51.17-.07.45,0,.54-.09.55-.75,1.27-.31,1.9-.38,1.15-.13,2.31-.19,3.46-.28V13.8l-2.09-.35c.64-.73,1.24-.21,1.81-.14s.86.23,1.29.25c1.42.08,2.85.12,4.28.18.14,0,.4,0,.4,0,.11-.61.42-.19.64-.19H63c1.27,0,2.54,0,3.81,0,1.66,0,3.32-.15,5-.23l2.35-.08V13l-2.61-.18c.1.16.2.33.29.5-.54-.23-1.2,0-1.61-.76-.11-.2-.66-.06-1-.06H67.38v-.2h4.7l-.25.23c2.15-.29,4.17-.19,6.22-.89C77,10.85,76,11.24,75,11.22c-1.78,0-3.55-.11-5.32-.16a7.54,7.54,0,0,0-.94.06c-.54,0-1.08.1-1.62.12-1.14,0-2.27,0-3.41,0-.71,0-1.43,0-2.15,0-1.25,0-2.51.08-3.76,0s-2.26-.18-3.39-.27l0-.24c.74.05,1.48.15,2.22.13,1.15,0,2.3-.13,3.46-.19.39,0,.79,0,1.18,0,.73-.08,1.47-.2,2.2-.29.36,0,.71,0,1.07,0,.8,0,1.6-.11,2.4-.07s1.32.26,2,.27c1.5,0,3-.1,4.5-.11.58,0,1.16.18,1.74.15.9,0,1.8-.27,2.7-.28,1.21,0,2.42.08,3.63.15s2.27.52,3.25.18c1.19-.41,2.32,0,3.45-.27a1,1,0,0,0,.28-.14l0-.23H85.38V9.7h1.24c2.69.08,5.39.17,8.09.23,1.21,0,2.43,0,3.64,0,.76,0,1.51.17,2.27.25a.64.64,0,0,0,.35-.08c.45-.19.81-.67,1.4-.18.23.2.74-.07,1.12-.07s1,.06,1.54.08,1-.05,1.53,0,1.22.22,1.83.33c.13,0,.33.05.38,0,.38-.56,1-.49,1.45-.5s.4-.24.39-.55c0,.11.13.33.14.33a.69.69,0,0,1,.94.35c0,.05.13.05.2,0l2.87-.57c-.13-.13-.17-.22-.22-.22L112.46,9c-.62,0-1.26-.31-1.84.17,0-.06-.09-.19-.12-.19l-2.29.31c-.53-.43-6.36-.4-6.76,0l-1.38-.2,0,.12.36.26c-.33-.08-.72.22-1-.36-.12-.25-.81-.13-1.24-.14-.73,0-1.46,0-2.19,0V8.77H98.8c.38,0,.75,0,1.12,0s1,0,1.42,0,1-.21,1.43-.29a1.06,1.06,0,0,1,.56,0,3.5,3.5,0,0,0,2.58-.16,4.12,4.12,0,0,1,1.7.08c.17,0,.37.1.51,0a2.58,2.58,0,0,1,2.21-.13c1.15.49,2.14-.06,3.19-.38-1,0-2.06,0-3.09,0-1.4,0-2.8-.12-4.2-.19-2.51-.12-5-.28-7.51-.34-1.14,0-2.29.17-3.45.2a20.36,20.36,0,0,1,8-.65c-.21-.14-.29-.21-.39-.26a.57.57,0,0,1-.25-.21c1.6-.56,3.21-.13,4.81-.13,0,.08,0,.17,0,.25l-1.49.1v.15l12.65.37h0l.32.08,1,.11c.51,0,1,.15,1.53.16,1.73,0,3.46,0,5.18,0a3.28,3.28,0,0,1,1,.34c.06,0,.18-.22.31-.22,1.32,0,2.65,0,4,0,1.06,0,2.12,0,3.19,0l0,0a3.39,3.39,0,0,0,3.11-.21,1.18,1.18,0,0,1,.67-.23c.59,0,1.19,0,1.78,0l0,0-2.17.34v.36a4.7,4.7,0,0,0,1.84-.05c.94-.42,1.68.41,2.54.11v.21l-1.24.28h2.79v-.1l-1.19-.09,0-.17.66-.34c-.13-.3-.25-.59-.38-.87v0h.79V7l-.55.09a1.71,1.71,0,0,0,2.2.65,3.93,3.93,0,0,1,1.4.06c.7,0,1.4,0,2.1,0,.42,0,.84.11,1.25.17l0,.31-1.81-.19v.29a55.07,55.07,0,0,0,9.44,0c-.16-.13-.27-.28-.37-.27l-3.48.2c-.13,0-.27-.12-.41-.15a4,4,0,0,0-.91-.11,9,9,0,0,1-1.8.07c.61-.78,1.43-.32,2.13-.59l0-.32h.12c.64,1,1.48.17,2.22.32a9.39,9.39,0,0,0,2.45-.14L158,7h3l0,.2-2.27.29v.13h4.78a12.44,12.44,0,0,0,2-.13c.91-.15,1.8-.46,2.71-.61a10.12,10.12,0,0,1,1.74,0h1.41l.14.49c.26-.16.53-.41.59-.36.6.58,1.23.34,1.86.13,0,0,0-.07.06-.12s.06.2.1.2a15.13,15.13,0,0,1,1.5.25c.67.19.93-.42,1.29-.81s.58-.91,1-.18a.18.18,0,0,0,.2,0c.83-.79,1.53.08,2.3.23.95.19,1.91.32,2.85.47.09-.38.13-.6.16-.77l1,.42-.58.19.64.28c.23.11.51.37.69.29.37-.16,0-.39,0-.63a1.77,1.77,0,0,1,.25-1c0-.06.42.16.64.16.83,0,1.66,0,2.49,0,.18,0,.46-.21.52-.14.73.92,1.6,0,2.4.26a9.36,9.36,0,0,0,2.54.23c1,0,2.06,0,3.09.08.08,0,.15.15.23.24l-.09.27,2.91-.34-.45.25,0,.22a5.53,5.53,0,0,1,1-.14c1.16.06,2.32.17,3.48.25a2,2,0,0,0,.42,0c.81-.13.81-.13,1.36.5-.2.12-.43.39-.63.37-.44-.05-1-.09-1.24-.41-.33-.55-.53-.16-.8-.05l.41.13-.49.69.11.2a8.7,8.7,0,0,1,4.39.09V9h-1.32v.17h2.16V9.05l-.61-.1,0-.16.82-.36c-.49-.33-.84-1-1.49-.42,0,0-.18,0-.25,0l-1.22-.7c4.47-.06,8.88.26,13.44-.25-1.18.84-2.49.31-3.57.92.25.37.93-.28,1,.58.55-1.11,1.6-.52,2.43-.83a9.94,9.94,0,0,1,1.43-.35l0-.2-1,.07a1,1,0,0,1,1.33-.31c.32.25.34.44,0,.64a8.68,8.68,0,0,0-1,.65h1.92l1.69-.42-.7-.73,2.94-.64.08.36-2.07.68v.22a8.45,8.45,0,0,1,1.51,0,7.12,7.12,0,0,0,1.43.34l-.45-.29,0-.25,4.3-.45,0,.32-2.19.27,0,.16.8.1,2,.3a1.37,1.37,0,0,0,.28,0l-.07-.57c.55.52,1,.59,1.52.16a.37.37,0,0,1,.34,0A3.9,3.9,0,0,0,236,8a.55.55,0,0,1,.28,0s0,.08.08.17l-1.52.33,0,.12,2.46.41,0-.1-.6-.21,1.07-.31,0-.18-.93-.14.64-.27,0,0a1.76,1.76,0,0,1,2-.23,8.6,8.6,0,0,0,2.89.21,1.92,1.92,0,0,1,1,.14c-1.22,0-2.41.84-3.68-.09,0,.46,0,.78-.08,1.33l.8-.49a2.38,2.38,0,0,0,2.69.22l1.38.44v.08h-1.55l0,.21c.31.08.61.17.92.23s.63.08,1,.13c.09-.07.25-.32.42-.32.78,0,1.57.05,2.35.09.59,0,1.18,0,1.76.07a24.35,24.35,0,0,0,3.27.41c1,0,1.85.3,2.79.28,1.54,0,3.08,0,4.62,0,1,0,2.06.11,3.09.16a2.6,2.6,0,0,0,.47-.09v-.22l-3.4-.4,0-.1h4.56l-.87.64a81.32,81.32,0,0,0,9.75,0v-.37h-4.22V10H275c0,.32,0,.52.05,1h6.54v.16c-1.26,0-2.51,0-3.77,0-.32,0-.78-.27-.94.39a1.77,1.77,0,0,1-.68-.11,11.23,11.23,0,0,1-1.06-.49l-.08.27.6.2-2.16.25v.16h2.24l0,.31-2,.15v.15c.77,0,1.55,0,2.32,0,.07,0,.12-.34.22-.65.19.15.42.36.67.54a.33.33,0,0,0,.26.09,6.89,6.89,0,0,1,2.52.1,11.21,11.21,0,0,0,1.92,0,5.56,5.56,0,0,1,.7.08v.23h-8.79v.37h7.59l0,.38-2.68.25,0-.11.34-.19-1-.2.26.58h-1.52v.2a2.61,2.61,0,0,1,1,0,5.35,5.35,0,0,1,1,.73l.22-.31-.42-.15,0-.14h1.53v.14l-.77.06a3.49,3.49,0,0,0,2.49.86c1.21-.07,2.4.47,3.63.05.46-.15,1.06.25,1.59.39v.22h-.76v.26l2.45.17,0-.25-1.37-.28c.65-.1,1.32-.4,1.8.41.1.16.48.12.73.13.59,0,1.18,0,1.77,0v-.32h-2.43v-.3h1.82c1.78,0,3.56-.08,5.34-.1.65,0,.3-.44.2-.9l1.3-.19,0,.27-1.07.14c1.12.75,1.38.76,2.32.42.5.08,1,.13,1.5.23a6.64,6.64,0,0,1,.81.3h-1.95v.37h1.95v.19l-3,.51a2.66,2.66,0,0,0-.87-.13,7.24,7.24,0,0,0-1.14.44l-.42-.62H294v.16h1.47l.05.26-.57.27.7.48-.1.26-2.3-.53,0,.22.91.15,0,.11-2.52.84.17-.64-1.1.52c-.12-.53-.35-.56-.9-.19-.24.16-.65,0-1-.08a2.47,2.47,0,0,0-1.49.15,2,2,0,0,1-1.25-.07c-.31-.12-.54-.51-.52.22-.32,0-.83.1-.93-.07-.42-.76-.53-.22-.69.11l-.88-.63c.06.39.08.54.11.72l-.56.2.57.33-.37.43.45.07v.15h-1.53a16.47,16.47,0,0,0,8.59.15c0,.13,0,.26,0,.39l-1.53.2,0,.12a5,5,0,0,0,1,.06c1.2-.21,2.38-.47,3.58-.71l1.3-.22h0l1.22-.25.06.14c-.51.31-1,.87-1.52.84A2.94,2.94,0,0,0,293,21a6.71,6.71,0,0,0-.6.34c1.64,0,3.1,0,4.55,0a11.55,11.55,0,0,0,1.29.14c1.51-.18,3-.42,4.53-.63.13,0,.37,0,.39,0,.27,1.11,1.16.47,1.81,1-.34-1,0-1.26.71-1.35a17.78,17.78,0,0,0,1.85-.45l0-.28-2.76.49,0-.2,3.17-.79c.3.34-.67.61.38.84l-2.27.68v.14a2.73,2.73,0,0,0,.48.1,1.09,1.09,0,0,0,.27-.07c.21.8.76.28,1.11.3.67.05,1.35-.09,1.95.66-.2,0-.41-.11-.43-.07-.37.87-.89.36-1.36.19a1,1,0,0,0-.41-.08c-.73.08-1.45.21-2.18.28-.31,0-.63-.11-.95-.1a8.58,8.58,0,0,0-1,.18l0,.26h1.31v.13c-1.1.37-2.21.77-3.32,1.12a10.49,10.49,0,0,0-1.24.34l1.84.2v.09l-1.87.28c.09.42.2.7.66.5.22-.1.65-.12.73,0,.47.8,1.12.46,1.7.43a3.62,3.62,0,0,0,1-.46h-1.58v-.11l1.35-.35,0-.25-1.09.16c0-.1,0-.2,0-.3l3.14-.17v.13l-1.6.24v.21l1.82-.16a3,3,0,0,1,.52,0,3.93,3.93,0,0,0,.48.06,8.87,8.87,0,0,0,1.26-.17,3.6,3.6,0,0,0,.77-.37l.45.79-1.3,1,.7-.21-.24.66.63-.37.11.13-.63.77.28.29c-.41.11-.81.25-1.23.32s-.81.08-1.28.13l.19.52-1.48.48.05.23a3.06,3.06,0,0,1,.81-.22c.36,0,.72.12,1.09.12a6,6,0,0,0,1.06-.14l-.45.33,0,.23,1.31-.22-.65,1.14.15.11-1.16.17a3.5,3.5,0,0,0,1,.72,5.86,5.86,0,0,0,1.46.11l-.61.37.59.27-1.36.93-1,.24.86.6.13-.24c.56.48.67-.44,1.05-.46Zm-22-8.14c.27.06.59,0,.79.19a1.49,1.49,0,0,0,2-.33c-.69-.08-1.38.05-2.08-.08a34.13,34.13,0,0,0-3.92-.3v.25l1.55.13,1.69.16h-1.95V25h2.57ZM167,72.85c.19.74.65.32,1,.29s.59-.3.79-.2c.88.39,1.5-.39,2.27-.54a11.69,11.69,0,0,0-2.28-.11,10.06,10.06,0,0,0-1.55.16c-.09,0-.15.26-.23.4-.25,0-.5,0-.75,0-.58,0-1.17.07-1.75.1a4.93,4.93,0,0,1-.54,0v.26l2.83.39,0-.19-.33-.37ZM299,27.37c-.19-.07-.47-.08-.55-.22a.72.72,0,0,0-1.21-.12l.32.14-2.31.19v.16l1,.53-.85.45c.86.22.84.21,1.13-.65.05-.17.31-.25.49-.36,0,0,.06.06.09.1l-.36.54h2.17V28l-1.58-.17v-.23H299l.57.26c-.07.14-.13.27-.25.54.69,0,1.1-.57,1.8-.44a7.19,7.19,0,0,0,2.88-.56c.13,0,.24-.23.36-.36l-.08-.16-3.08.62.62-.61a.94.94,0,0,0-1.48,0l.92.06,0,.24a2,2,0,0,1-.67.08c-.45-.1-.89-.27-1.34-.41l-.05.17.23.15Zm9.49,35.12-1.53.23,0-.12,1-.31v-.14l-.85-.21v-.13l2.21-.31,0-.17-.91-.23.68-.26,0-.1-2.86.29v.11l1.47.12c-1,.64-1.7,1.22-2.7.85.61.35,1.2.66,1.81,1a2.24,2.24,0,0,0,1.73-.57c.53.71,1-.18,1.5-.09l-.06-.29-.67.19-.06-.22.8-.32,0-.16-1.86.35v.2l.79.07,0,.15Zm-6.82-7.32.81-.27-.27.51,1.42-.29,0,.25-1.48.57a7.8,7.8,0,0,0,1.69,0,5.75,5.75,0,0,0,1.31-.66l-.07-.2-1.25.32c.38-1.15,1.08-.41,1.57-.68-1.26-.27-2.47-1-3.8-.3,0,.29,0,.55.05.81h-1.11V55l.5-.14c-1.21-.56-1.75,1.05-2.86.88l.06.26,1.26-.16c-.32.61,0,.65.32.62.54,0,1.08-.11,1.62-.19a2.69,2.69,0,0,0,.46-.14l0-.14-1.39-.13Zm-2.79,11.52,0-.5c-.09,0-.24,0-.25,0-.25.83-.84.8-1.43.79-.23,0-.46,0-.68,0h-.59a2.74,2.74,0,0,0,3-.41,5,5,0,0,0,1.07.16c.9-.07,1.8-.2,2.7-.31l0,.15-3.34.62c.28.11.48.27.67.25,1.19-.1,2.38-.22,3.58-.36A1.49,1.49,0,0,0,304,67l-.17-.21-.85-.25v-.11l.73-.14v-.21a1.51,1.51,0,0,0-.54-.1C301.75,66.19,300.31,66.44,298.86,66.69Zm-11.63-2h-4.69a1.62,1.62,0,0,1,0,.22,13.9,13.9,0,0,0,1.67.22,14.44,14.44,0,0,0,2.08-.14,5.06,5.06,0,0,0,1-.32l.95.68h-6.62c0,.28-.05.56-.09,1,1.3-.28,2.67.4,3.84-.24l1.37.14,0-.19-.5-.21c1.53.21,2.82-1.27,4.35-.68l-1.71.15,0,.47,4.77-.4v-.2l-.67-.08,0-.29,1.39-.16v-.17h-1.19v-.25l3.54-.31v-.2a2.94,2.94,0,0,0-.59,0,2.64,2.64,0,0,0-.55.15l0-.11.61-.46-.53-.43a5.57,5.57,0,0,1-.67.42c-.63.26-1.29,0-1.93.12-.33,0-.66.13-1,.21l-.73-.45,0,.43c-.31-.09-.59-.29-.83-.23s-.51.35-.76.54l-.09-.16.27-.4-2.68.4C287.19,64,287.21,64.32,287.23,64.64ZM292.45,26c.37-.18.36-.18.43-.74,0-.1.13-.2.22-.26s.15,0,.2.09a2.48,2.48,0,0,0,1.8.35,5.1,5.1,0,0,1,1.11-.1v.22l-.48.17,4.34-.4.09-.19-1-.54.64-.43L298.54,24c.29-.27.44-.4.61-.54-.95-.81-6.92-.94-9.19-.22l.84.42a2.67,2.67,0,0,1-.95,1.45l.73-.06.1.23-.81.58,1,.59,0,.19-4.76.26,0-.25,3.39-.4V26l-4.64.27v.24c.64,0,.64,0,1.1.56a.43.43,0,0,0,.3.16l2.89-.16,4.29-.2c.11,0,.21-.14.32-.21l0-.25a12.39,12.39,0,0,1-1.36.07c-.46,0-1,.11-1.38-.44,1.11-.38,1.43-.87,1.23-1.75h.57c-.07.27-.16.53-.2.79S292.46,25.71,292.45,26ZM103.56,72.52l-1.45-.1-2.65-.21c-.38,0-.82-.31-1.13-.17a3.92,3.92,0,0,1-1.94.19c-.83,0-1.66,0-2.49,0a2.47,2.47,0,0,0,1.25.85c.67.11,1.39-.1,2.07,0,1.49.26,3-.31,4.44,0,.17,0,.37-.2.57-.26a1.69,1.69,0,0,1,.55,0,7.17,7.17,0,0,0,1.12.15c.41,0,.84-.25,1.23-.17.57.11.9-.12,1.25-.66h-2.82ZM298.28,64.2c1.17-1,1.44-1,2.78-.08a.77.77,0,0,0,.78.07,1.26,1.26,0,0,1,1.19-.35,3.48,3.48,0,0,0,0-.39l1.47-.11v-.18c-.19-.13-.38-.26-.66-.43l.73-.09c-.76-.17-1.52-.22-2.28-.32-1.34-.17-2.55,1-3.91.55,0,0,0,.08-.1.16l.53.33-.66.14C298.17,63.76,298.23,64,298.28,64.2ZM127.72,8.51c0-.1,0-.2,0-.3-.43,0-.87,0-1.29,0-.9,0-1.79-.08-2.68-.12-1.07-.05-2.14-.12-3.21-.14-1.56,0-3.13,0-4.69-.08a3.62,3.62,0,0,0-2.4.68c1.37,0,2.69,0,4,0,.94,0,1.89-.28,2.83-.29,1.18,0,2.36.11,3.55.15.8,0,1.62,0,2.42,0C126.76,8.43,127.24,8.48,127.72,8.51Zm31,64.25c.72,1.28,1,1.39,2,1.09a.62.62,0,0,1,.33,0,5.12,5.12,0,0,0,2.88-.25c-.32-1.08-1-.87-1.65-.69a5.77,5.77,0,0,1-1.59.23A13.1,13.1,0,0,1,158.72,72.76ZM310.27,61.19l1.42-1.08.09.19-.19.54.11.22,1.81-.64-.68-.19,1-1.12c-.33-.25-.43-.86-1.09-.3-.39.32-1,.25-1.16,1,0,0,0,0-.06,0l-1.54.33C310.08,60.52,310.17,60.81,310.27,61.19ZM256.21,72.46v-.13c-1.18-.1-2.35-.27-3.53-.27s-2.28.16-3.42.26v.07l3.16.23-.67.53,0,.19h3.89v-.21h-2.07l0-.27Zm2,.49,0-.15h3c-.06-.29-.19-.52-.34-.54-.83-.09-1.67-.16-2.5-.19a.93.93,0,0,0-.78,1.17c.13.58.47.15.73.13a5.11,5.11,0,0,1,.55,0l2.44.09c.1,0,.2-.11.3-.17V73.2ZM102.88,11.16v-.22H93.82A38.16,38.16,0,0,0,102.88,11.16ZM275.57,31l-2.05-.36.35-.33c-.67-.39-2.87-.19-3.14.25C272.29,31.57,274,31,275.57,31ZM141.33,9l0-.31-6.78.26v.24a1.28,1.28,0,0,0,.27.05c1.68,0,3.36.09,5,.08A8.14,8.14,0,0,0,141.33,9ZM290.8,58.47l0,.24-.73.13c1.36.62,2.62.59,2.9.09l-.87-.15,0-.19.76-.13,0-.22-3-.17,0,.23Zm-104.88,15h2l0-.25a4.3,4.3,0,0,0-.84-.21c-.76,0-1.52-.08-2.27-.06-.1,0-.25.39-.26.59s.21.48.3.47a11.9,11.9,0,0,0,1.45-.31Zm-16.16-2.14c-1.47-.16-3-.49-4.3.62C166.93,72.1,168.32,71.4,169.76,71.29ZM306,60.56c.36,0,.81-.23,1.06-.05.71.5,1.24-.08,1.84-.23a4.21,4.21,0,0,0,.89-.47C308.77,59.3,307.68,59.4,306,60.56ZM172,72V72h6.54c-.13-.31-.21-.48-.29-.68ZM298.15,16.28V16H291.7v.26Zm-18.54,2.61c0,.13,0,.27,0,.4,1-.55,1.76.36,2.67.32.06,0,.11-.1.16-.15a1.4,1.4,0,0,0,.13-.18l-.4-.3.56-.34-.15-.31ZM315.4,58.68l1.07-.79,0-.19-2.2.16v.22l.66.45-.78.42c.66.11,1.15.65,1.48-.2Zm-4-10.37v.17l1.64-.23c.48-.06.89-.28.88-.89a3.14,3.14,0,0,0-.32-1c-.21,1-.72,1-1.34.89-.26,0-.55.16-.84.25l0,.15,2.14-.17,0,.24ZM41,30.47l0,.23,5.82-.43,0-.33ZM262.07,71.66v-.21h-4.12A7,7,0,0,0,262.07,71.66ZM224.39,8.89l0,.16c1.12,0,2.24,0,3.35,0,.54,0,.67-.29.81-.64ZM214,8.18l-3.48-.39,0,.38,3.51.47Zm-18.08.25-.81-.6,0-.11.57.15.49-.76-1.71.46c-.11.33-.19.56-.3.86Zm-2-.09a1.58,1.58,0,0,0-2.16-.56l.75.17v.11l-.56.06v.22ZM290.9,68.6l0,.23h3.36V68.6ZM119.1,9.18l-2.47.41h3.61V9.41ZM298,57.51l-1.54-.41a2.26,2.26,0,0,0,.57.41,3.72,3.72,0,0,1,.48.55l-1.55.15,0,.23,2.31-.17-.71-.48Zm-21.52,7.75a5.86,5.86,0,0,0-.89.2,1.7,1.7,0,0,0-.42.34,1.63,1.63,0,0,0,.52.12,4.37,4.37,0,0,0,.77-.2l0,.17-.27.15.11.21.92-.68ZM61,69.06l0-.28a21.51,21.51,0,0,0-2.78.18l0,.33ZM230.43,8.51l0,.2h4.08v-.2Zm82.06,48.7,1.13-.83c-.29-.16-.44-.31-.61-.32a1.56,1.56,0,0,0-.66.13.44.44,0,0,0-.14.33A3.54,3.54,0,0,0,312.49,57.21ZM305.71,61l-2.62.41A1.94,1.94,0,0,0,305.71,61Zm8.92-15.92-1.55-.63-.05.12.28.25-.46.8Zm-202-34.43v-.16h-3v.16Zm171,22.49,0,.3,4-.25v0Zm1,31.06h2.18C286.43,63.61,285.36,63.6,284.57,64.23ZM210.68,8.56c-.32-.67-.72-.86-1.24-.65a.59.59,0,0,0-.27.36c0,.06.15.27.24.27C209.81,8.57,210.2,8.56,210.68,8.56ZM89.92,11.28h2.89l0-.28A6,6,0,0,0,89.92,11.28ZM303,23.17l0-.32-2.77.36,0,.26ZM192.56,8.92l0-.21a9.28,9.28,0,0,0-3,.21ZM291,31.11v-.17h-2.83v.17ZM180.68,7.31c.8.17,1.57.85,2.42.28ZM132.89,70.79V71h3v-.22ZM311.35,58.66l-.08-.33-2.22.81.07.27ZM221,72.2c1,.36,1.27.24,1.37-.57H221l.55.26Zm71-54.95,2.51.13C294.21,16.89,292.89,16.81,292,17.25Zm9.22,12.39,0-.28a4.44,4.44,0,0,0-2.35.28Zm12.83,19.3h1.13l.07-.24-1-.64C314.13,48.49,314.1,48.7,314.05,48.94ZM230.43,71.66l2.17.16C231.87,70.9,231.12,71.64,230.43,71.66ZM142,71V70.8h-2.91V71Zm-7.8-61.75V9h-3.15v.18ZM300.62,61.73v.43L302.5,62v-.26ZM45.72,25A2,2,0,0,0,48,24.86ZM188,71.73v-.21h-2.19v.21Zm-86.5-.46c.47.22.9,1,1.59.17Zm187.21-42V29l-2.37.21v.23ZM188.53,7.89V8l1.61.27,0-.61Zm-.4,63.18v-.15H186v.15ZM294.86,33.55v-.2h-1.67v.2ZM297,29v-.15l-1.74.2.72.49ZM214,9.11h2.45l-.63-.66C215.43,9.55,214.63,8.74,214,9.11ZM95.1,69.63v.22h2.27v-.08ZM163.5,8.28a2.05,2.05,0,0,0-2.27.21ZM315.09,60.39l-.07-.22c-.52.21-1.18.07-1.48.9Zm-28.65-34.9v.15h2.27v-.15Zm18.94.39c0,.1,0,.2,0,.29l1.63.11,0-.24Zm-5.29,42.25c-1.2-.6-1.42-.59-1.81,0Zm-.84-33.69v-.31l-1.79.27,0,.27Zm-106-25.66v.16h2.1V8.78ZM307.85,29.39l0-.31-1.53.16c0,.13,0,.26,0,.38ZM243.7,72.85c-.21-.74-.69-.46-1.17-.44C242.76,73.25,243.32,72.7,243.7,72.85ZM290.61,69v-.3h-1.44v.21ZM305,43.85l-.08-.36-1.45.3.05.29ZM180.91,71.11l0,.36,1.27.1V71.2Zm29.73.87v.23l2.3-.15V72Zm91-41.62a2.71,2.71,0,0,1,0-.29h-2.27v.11ZM171.25,71.08l0-.31h-1.44l0,.17Zm-60.61,1.34,0,.2h1.82v-.2Z"/><path class="cls-1" d="M60.76,8.87l-.7-.41c1.79-.5,3.39-.09,5-.07v.22l-1.47.14V8.8l21.46,1,0,.2a2.61,2.61,0,0,1-.6.14c-.54,0-1.09,0-1.63-.05-1.39,0-2.78-.09-4.18-.1-.63,0-1.25.1-1.88.09-2,0-4-.13-6.06-.17-.95,0-1.9,0-2.84,0-1.84-.05-3.67-.13-5.5-.22s-3.67-.25-5.51-.27c-1.31,0-2.61.14-4,.11.85-.17,1.7-.39,2.56-.49s1.82,0,2.72-.16a5.23,5.23,0,0,1,2.51.2Z"/><path class="cls-1" d="M146.32,75l0-.07-.06.08.44.3-1.48.48.61-.55c-.85-.17-1.69-.37-2.53-.48-.26,0-.54.25-.82.26-.88,0-1.76,0-2.63,0-1,0-2.06.06-3.08.06s-1.75-.06-2.62-.1l-3.55-.15h0c-.05-.2-.09-.39-.15-.66.71,0,1.4,0,2.09,0s1.56-.1,2.34-.15c.09,0,.21-.06.28,0,.95.6,1.79-.35,2.71-.25.2,0,.44-.12.59,0,.64.36,1.23.06,1.82-.1a2.51,2.51,0,0,0,1.33-1.3c.17-.27.71-.32,1.08-.31a4.11,4.11,0,0,1,1.15.39s0,.27-.08.57h-2.23v.2l1.78.28v.1l-.61.13v.15l2.52.23-.7.69c.58,0,1.08,0,1.59,0,.08,0,.15.19.23.29Z"/><path class="cls-1" d="M283.9,9.2l-3.22,0c-.83,0-1.65,0-2.48.06a7.44,7.44,0,0,1-1.82,0,13.77,13.77,0,0,0-2.32,0,6.39,6.39,0,0,1-3.27-.55c-.44-.28-.7.05-1,.27s-.59.39-.89-.1c-.1-.15-.49-.06-.75-.07l0,.23.34.18V9.4h-2.74c0-.15-.14-.48-.24-.82l-.37.12-.1-.32c.2-.05.54-.08.55-.17.11-.77.63-.54,1-.51.8.07,1.59.24,2.39.37,0,.54,0,.54.76.47.72-.39,1.42,0,2.19.05l-.64-.46.13-.11h10.45c0,.08,0,.17,0,.26l-2.93.31v.12c.67,0,1.34,0,2,0s1.54-.13,2.31-.17c.39,0,.68.14.66.68Z"/><path class="cls-1" d="M175.94,74.68l-7.42.34,0-.3.51-.12v-.13h-1.91c.22-.11.36-.25.48-.22.67.14,1.18-.44,1.77-.53a4.41,4.41,0,0,1,2.2-.07,7.65,7.65,0,0,0,2.25.15,8.1,8.1,0,0,0,.86-.06l0,.2-1,.18,0,.24H176Z"/><path class="cls-1" d="M71.21,69.92a4.89,4.89,0,0,1-.64.14,1.66,1.66,0,0,1-.49-.07l0,.24,2.64.3v.23c-2.39-.73-4.73.48-7.15-.08l.75-.38c-.22-.11-.38-.25-.48-.21-.61.23-1-.41-1.52-.48l-.36-.3c-.24-.52.12-.4.31-.35a11.2,11.2,0,0,0,1.33.4c.63.07,1.26,0,1.83.14.32.13.72.47.95.36a2.56,2.56,0,0,1,2.54.08c.09,0,.23,0,.34,0Z"/><path class="cls-1" d="M155,71.86l1.32-.08-.38.54.44.43c-3.75,0-7.49.44-11.22-.25,1.6-.37,3.28,0,4.85-.81a1.75,1.75,0,0,0,1.77.8c1,0,1.95-.06,2.93-.08.38,0,.54-.14.31-.58Z"/><path class="cls-1" d="M265,8.38l.1.32.11.3-1,.25.26.49-3.09-.2,0-.21h2.41V9.22l-2.52-.35v-1l-1,.56H261c-1,.61-1.25.5-1.29-.36,1.57-.81,3.17-.38,4.77-.22a2.63,2.63,0,0,0-.56,0,5.7,5.7,0,0,0-.74.26Z"/><path class="cls-1" d="M130.25,5.92c-2.46.3-5,0-7.45.63l.06.34c-.07,0-.12,0-.14,0a1.12,1.12,0,0,0-1.48-.51c-.66.18-.52-.49-.73-.78.21-.08.44-.28.62-.22.8.25,1.58.72,2.44.19a.7.7,0,0,1,.61-.06c1,.53,1.94,0,2.9.13S129.2,5.82,130.25,5.92Z"/><path class="cls-1" d="M284,12.92l2.4-.3c.07,0,.18,0,.2,0,.46.8,1.19.41,1.83.68l-1.44.38,0,.14h2.06V14l-.9.08v.11l.86.37,0,.15-1-.08c0,.1,0,.19,0,.29l.91.23-1.39.16-.15-.15.59-.13-.18-.31c-.36-.06-.78-.28-1.05-.13-.58.32-.76-.26-1-.51s.07-.65.11-.92H284Z"/><path class="cls-1" d="M87.9,8.21H84.64c-.77,0-1.53,0-2.3,0s-1.64.11-2.45.17a5.28,5.28,0,0,1-1.19,0c-.17,0-.32-.35-.42-.57s0-.32,0-.48a5.25,5.25,0,0,1,.55.09c.79.22,1.56.67,2.39.13a.63.63,0,0,1,.55,0c.91.49,1.85,0,2.77.13s1.76.14,2.64.21c.24,0,.47.1.71.15Z"/><path class="cls-1" d="M295.12,72.55c-1.11-.4-2.16.29-3.24.36a23,23,0,0,1-3.33.09c.43-.08.86-.18,1.3-.23,1.52-.19,3-.36,4.57-.56a6.64,6.64,0,0,0,.92-.31c.24-.07.5-.11.74-.16l.05.2-1.17.45,1.35.07c-1,.62-6.92,1.6-7.82,1.25l6.64-.9Z"/><path class="cls-1" d="M146.32,75,148,74.5h-1.6v-.21c.53-.05,1.06-.06,1.58-.16a3.56,3.56,0,0,0,1.25-.46c.56-.36.95-.21,1.43.76h-2.31v.23l1,.2a1.67,1.67,0,0,1-1.93.29,4.74,4.74,0,0,0-1-.18Z"/><path class="cls-1" d="M77,8.88l-7.84-.39v.2c.72-.36,1.42-.77,2.16-1.07.37-.16.83-.29,1,.37,0,.06.17.11.24.1.81-.15,1.53.32,2.3.43a13,13,0,0,0,1.77,0,2.58,2.58,0,0,1,.35.09Z"/><path class="cls-1" d="M118.59,7.16a12.93,12.93,0,0,0-1.69-.48c-1.19-.15-2.38-.26-3.58-.3a11.14,11.14,0,0,0-1.79.24c.74-.38,1.44-.81,2.18-1.1.34-.13.81-.25,1,.39,0,.11.45,0,.69,0a6.65,6.65,0,0,0,4,.55l0,.32-.65-.11c0,.16-.11.33-.16.51Z"/><path class="cls-1" d="M237.54,7.9l-3.13-.43V7.35c.75-.07,1.5-.09,2.24-.23a7.18,7.18,0,0,0,1.81-.62h1.72l0,.16-.74.29.8.32h-2.74v.65Z"/><path class="cls-1" d="M222,5.77h7.84c-.33.11-.66.36-.87.26-.58-.27-1.08,0-1.6.14l0,.07.24.12-.09.19c-.22-.15-.43-.32-.65-.46a.94.94,0,0,0-.47-.14,10.48,10.48,0,0,1-2.71.24c-.56-.1-1.15.23-1.67-.18Z"/><path class="cls-1" d="M226,75.82c0-.08.1-.32.18-.33,1.19-.17,2.39-.28,3.58-.46s2.24-.42,3.37-.61a5.61,5.61,0,0,1,.82,0v.4Z"/><path class="cls-1" d="M67.52,75.26c-2.06.14-4.1.63-6.15.28l0-.22,2.32-.4c.07,0,.16-.09.2-.06,1.14.66,2.36.19,3.54.32C67.45,75.19,67.48,75.24,67.52,75.26Z"/><path class="cls-1" d="M119,76.24c2.49-.7,5.1-.43,7.58-1.22.07,0,.18.14.28.21v.26l-7.85,1Z"/><path class="cls-1" d="M298.66,13.81c-.93.19-1.78.83-2.64.41.05-.4.1-.71.13-1h.75c0,.17.1.5.17.84.24-1.23.36-1.36,1.38-1,.42.14,1,0,1.23.74l-1.47-.5-.06.25Z"/><path class="cls-1" d="M251.1,9.51h-5.95l0-.28c.23,0,.46-.09.68-.11.49,0,1.19.17,1.4-.12.35-.48.79-.49,1.18-.7a3.75,3.75,0,0,1,.75-.19c0,.11,0,.22,0,.32-.42.09-.85.17-1.27.28a1.66,1.66,0,0,0-.4.27c.14.1.28.29.43.29,1.05,0,2.1,0,3.16,0Z"/><path class="cls-1" d="M178.38,73.41l1.35.17v.12l-1.13.07.06.55c.83-.15,1.65-1,2.37.13-.82.48-3.18.26-3.48-.25Z"/><path class="cls-1" d="M281,72.93l-.42.5.47.36c-1.21.64-2.33-.08-3.42.16v-.3h2.51v-.28l-2.56-.23,0-.21Z"/><path class="cls-1" d="M292.89,7.21a3.63,3.63,0,0,1-1.09.24,9,9,0,0,0-3.12.58,1.2,1.2,0,0,1-.91-.14L289,7.64V7.5l-.72-.18V7.1h4.57Z"/><path class="cls-1" d="M221.76,75.56l-1.63.17c.5,1,1.3-.42,1.76.48l-1.69.22.41.54-1.71-.13,0-.14,1-.38v-.11l-.91-.07,0-.18,2.71-.76Z"/><path class="cls-1" d="M59,71.06h4.27c-1.53,1.07-3.07.58-4.65.06l.28-.68.18.07Z"/><path class="cls-1" d="M316.05,67.33h.38l.17-.22-.56-.36,0-.15,1.49.32-.09.12.79.71h-.69l0,.12.82.49a2.25,2.25,0,0,0-.08.24l-2.28-1Z"/><path class="cls-1" d="M257.61,8.35c0-.23.07-.46.13-.85h1.76l-.52.66.7.24c-.29.18-.43.34-.57.34-.54,0-1.08-.09-1.62-.14Z"/><path class="cls-1" d="M110.62,9.2c.58-.48,1.22-.2,1.84-.17l2.09.07s.09.09.22.22l-2.87.57c-.07,0-.18,0-.2,0a.69.69,0,0,0-.94-.35s-.09-.22-.14-.33Z"/><path class="cls-1" d="M165.85,6.61c-1.41.24-2.81.49-4.22.71-.08,0-.19-.23-.43-.56l4.63-.42Z"/><path class="cls-1" d="M57.26,71.66c-1-.17-2,.47-3.09-.23C55.32,70.61,56.29,71.07,57.26,71.66Z"/><path class="cls-1" d="M32.33,55.29c.19.32.38.65.59,1C31.57,56.36,31,56,31,54.78c.55,1.07.83-.51,1.13-.21.11.39.16.56.22.74Z"/><path class="cls-1" d="M322.14,53.53l1.46-.33,0,.23c-.87.31-1,.61-.75,1.39l-1,.81C322,54.89,322,54.29,322.14,53.53Z"/><path class="cls-1" d="M280.85,10.48h-3.28c-.19,0-.42-.05-.55.06-.58.49-1,.07-1.55-.35,1,0,1.92,0,2.8,0s1.75.09,2.62.13Z"/><path class="cls-1" d="M51.5,74.31a2.26,2.26,0,0,0,2.17,1.22c.2,0,.41.52.64.54a5,5,0,0,0,1.25-.14l-.7.7c-.82-.33-1.58-.67-2.36-.94A1.34,1.34,0,0,1,51.5,74.31Z"/><path class="cls-1" d="M252.07,8.67c-.07-.49-.42-1,.49-1.24l-.58,0c.35-.54,1.07-.52,1.16,0a5.39,5.39,0,0,1,0,.91Z"/><path class="cls-1" d="M172.78,6.6c.44-.54,2.84-.37,3.85.25C175.24,7.11,174.06,6.65,172.78,6.6Z"/><path class="cls-1" d="M223.8,75.36l1.41.26,0,.22-2.94.86.51-1.18c.52.53.72.49,1-.17Z"/><path class="cls-1" d="M283.89,9.22l.95.5h-.76l.1.26-4.5-.39V9.43c.52,0,1,0,1.56,0,.81,0,1.62.08,2.43.09.07,0,.15-.22.23-.33Z"/><path class="cls-1" d="M290.57,8.19,289,8.67l.88.05v.17h-3.68l0-.1L290.48,8Z"/><path class="cls-1" d="M130.14,73.75a5.13,5.13,0,0,0-.29-1c-.06-.1-.34,0-.51,0a9.9,9.9,0,0,1-1.89-.12c.92-.11,1.83-.25,2.75-.29.23,0,.46.33.7.51a6.42,6.42,0,0,0-.48.43A3.52,3.52,0,0,0,130.14,73.75Z"/><path class="cls-1" d="M300.14,8.82l4.78-1,0,.26A13.07,13.07,0,0,1,300.14,8.82Z"/><path class="cls-1" d="M60.21,74.37c-2.12.28-3.11.11-3.71-.6Z"/><path class="cls-1" d="M322,46.38c-.07,1.37-.07,1.37-1.24.85.06-.29.13-.59.22-1Z"/><path class="cls-1" d="M304.9,7.49l-4.69.92,0-.26,4.66-1Z"/><path class="cls-1" d="M288.33,6.43h4.43a11.71,11.71,0,0,1-4.41.27Z"/><path class="cls-1" d="M130.57,74.76l-3.4.61,0-.19a2.07,2.07,0,0,0,.6-.23c.38-.3,1,0,1.22-.78,0,0,.28,0,.48,0l-.24.43c.48.22,1-.37,1.39.18Z"/><path class="cls-1" d="M230.65,74.42l3.23-1,.11.21c-.22.17-.43.42-.67.48a19.65,19.65,0,0,1-2,.4A2.83,2.83,0,0,1,230.65,74.42Z"/><path class="cls-1" d="M296.26,17.31a7.24,7.24,0,0,1,1.14-.44,2.66,2.66,0,0,1,.87.13l-1,.46V18h-1.44l-.06-.19Z"/><path class="cls-1" d="M34.56,55.59l-1.12-.16.22.59-1.32-.73v0L34,54.1l-.48.76c.24.53,1.1-.25,1.06.74Z"/><path class="cls-1" d="M111.84,77.76l-.2-.62a2.72,2.72,0,0,0,.64,0c.6-.16,1.19-.37,1.78-.52a1.94,1.94,0,0,1,.63,0v.24A4.34,4.34,0,0,0,114,77C113.28,77.25,112.59,77.5,111.84,77.76Z"/><path class="cls-1" d="M75.86,72.47V72l1.11.53L76,73l.92.07v.09h-1v-.57h-.51l-.43.87c-.06-.43-.1-.69-.15-1Z"/><path class="cls-1" d="M232.87,5.66h-1.44V5.41c1.05-.15,2.1-.3,3.16-.43,0,0,.11.25.17.37l-1.83.36Z"/><path class="cls-1" d="M226.14,74.85c.71-.11,1.42-.25,2.13-.35s1.41-.14,2.12-.21l0,.28-4.25.47Z"/><path class="cls-1" d="M306.33,68.94l1,.82-.77.1,1.72,1c-.18.16-.18.15-.91-.22a10.7,10.7,0,0,0-1.05-.43Z"/><path class="cls-1" d="M289,12.67c.69-.09,1.38-.19,2.07-.26.54-.06,1.08-.07,1.59-.1l.07.75a5,5,0,0,0-3.28-.33c-.15,0-.3,0-.45,0Z"/><path class="cls-1" d="M285.55,7.62l.17.25a4.68,4.68,0,0,1-1.13,0c-.19,0-.34-.34-.55-.58l2.09-.15,0,.12Z"/><path class="cls-1" d="M298.44,19.41c.42-.36.59-1.19,1.45-.88-.22.15-.38.24-.66.42l.61.19,0,.22-1.37.38Z"/><path class="cls-1" d="M122.46,72.21l2.79.43,0,.27a5.62,5.62,0,0,1-.92,0,5.06,5.06,0,0,1-1-.22c-.32-.08-.62-.21-.93-.32Z"/><path class="cls-1" d="M299.51,6.77l-3.21.28,0-.29,3.21-.34Z"/><path class="cls-1" d="M135.1,7.68c.46-.21.92-.44,1.4-.63s.79-.1.89.61h-2.31Z"/><path class="cls-1" d="M277,7.11h3.67s-.08.29-.14.29c-1.17,0-2.35,0-3.53-.07Z"/><path class="cls-1" d="M309.15,32.76l.71.14c-.38,0-.49.94-1.05.46l-.13.24-.86-.6,1-.24Z"/><path class="cls-1" d="M316.88,52l-.41.21-.55-.47c.2-.74.83-.51,1.26-.73l-.06.68Z"/><path class="cls-1" d="M46.36,69.31l-.44-.25.07-.23a9.47,9.47,0,0,0,1,.42c.1,0,.24-.07.56-.17l.77.32-2.44.29Z"/><path class="cls-1" d="M38.55,40c-.35.08-.43.3,0,.36a11,11,0,0,0,1.62,0,2.39,2.39,0,0,1,.45.09l-.06.45-2.71-.35v-.37l.75-.16Z"/><path class="cls-1" d="M316.53,39.86a6.67,6.67,0,0,0,.1-1.67c0-.08.27-.24.42-.25a2.93,2.93,0,0,1,.65.07l-.6,1-.06-.1-.52.92Z"/><path class="cls-1" d="M310.54,67.37l-2.41.45-.06-.32c.45-.1.9-.18,1.34-.29s.75-.21,1.13-.29c0,0,.11.17.16.27Z"/><path class="cls-1" d="M309.59,26.86c.58-.83,1.22-1.47,2.26-1A5,5,0,0,0,309.59,26.86Z"/><path class="cls-1" d="M320.7,39.48l-3.1.39,0-.24,3.11-.38Z"/><path class="cls-1" d="M75.49,74.22,77,73.5l0,.13-.23.31.55.14v.1l-1.85.23Z"/><path class="cls-1" d="M140.64,7.27a4.54,4.54,0,0,1,2.83-.33v0l-1.43.49-1.39-.17Z"/><path class="cls-1" d="M281.29,7.28h2.32v.18h-2.32Z"/><path class="cls-1" d="M320.94,62l-1.56-.48.89-.26L320,60.6l1,.5,0,.15h-.68l.76.64Z"/><path class="cls-1" d="M324.12,46c-.95.49-1.69-.3-2.52-.35.34-.33.34-.31,1.16,0C323.17,45.84,323.61,45.91,324.12,46Z"/><path class="cls-1" d="M297,6l2.49-.22v.31L297,6.24Z"/><path class="cls-1" d="M285,73.7h3.09v.17H285Z"/><path class="cls-1" d="M39.18,35.69c.75.06,1.3.1,1.41.84H39.47l0-.12L40,36C39.73,35.91,39.53,35.84,39.18,35.69Z"/><path class="cls-1" d="M231.37,73l-3,.27v-.16l3-.44Z"/><path class="cls-1" d="M217.9,73.42l-2.9.46,0-.21,2.9-.48Z"/><path class="cls-1" d="M318.14,18.47l-2.37.31,0-.28,2.37-.3Z"/><path class="cls-1" d="M218.84,6.06h-2.37V5.9h2.36Z"/><path class="cls-1" d="M226.8,77.43c-.36,0-.72,0-1.08-.08s-.66-.09-1.09-.15A1.72,1.72,0,0,1,226.8,77.43Z"/><path class="cls-1" d="M116.3,76.33l1.89-.14A1.25,1.25,0,0,1,116.3,76.33Z"/><path class="cls-1" d="M40.88,36h2.48v.23h-2.5Z"/><path class="cls-1" d="M172.79,75.73l2.76-.45,0,.23-2.77.44Z"/><path class="cls-1" d="M294.68,20.12l-.51-.21v-.25l1.63-.43.05.21-1.2.69Z"/><path class="cls-1" d="M223.93,77.17h-1.59A1.06,1.06,0,0,1,223.93,77.17Z"/><path class="cls-1" d="M285,73.07h3v.13h-3Z"/><path class="cls-1" d="M323.6,52.84l-1.8.21v-.23l1.79-.25Z"/><path class="cls-1" d="M139.49,76.08c.63-.48,1.36-.23,2-.23l0,.23Z"/><path class="cls-1" d="M211.36,76.72l-1.05.31c-.09-.23-.17-.45-.3-.77l1.31.21C211.33,76.55,211.35,76.64,211.36,76.72Z"/><path class="cls-1" d="M37.16,41.42H34v-.18h3.19Z"/><path class="cls-1" d="M221.34,5.73a1.62,1.62,0,0,1-2.05.15Z"/><path class="cls-1" d="M305.72,6c-.54.09-.54.09-.63-1.2l.68.29-.16.14Z"/><path class="cls-1" d="M294.82,9.33v.4l-2-.11c.06-.21.32-.33.9-.3C294.07,9.34,294.41,9.33,294.82,9.33Z"/><path class="cls-1" d="M119.65,78.13l-2.09-.22,0-.26,2.07.14Z"/><path class="cls-1" d="M223.82,75.35c0-.13,0-.38,0-.38.44,0,.88-.06,1.32-.08l0,.28-.85.14-.56,0Z"/><path class="cls-1" d="M67.38,7.56a1.41,1.41,0,0,1,1.94,0Z"/><path class="cls-1" d="M224.83,76.51a1.54,1.54,0,0,1,2.07.21Z"/><path class="cls-1" d="M290,9.59h-3V9.41h3Z"/><path class="cls-1" d="M248.73,75.39h-2V75.2h2Z"/><path class="cls-1" d="M279.75,75.09l2.81-.47,0,.22-2.8.43Z"/><path class="cls-1" d="M73.91,11.93l-2.3-.21,0-.27,2.32.24Z"/><path class="cls-1" d="M269.71,8.54c-.79.07-.79.07-.76-.47l1.4-.23C270.12,8.08,269.91,8.31,269.71,8.54Z"/><path class="cls-1" d="M182.23,76.44l-2.23,1-.07-.23,2.24-.92Z"/><path class="cls-1" d="M302.31,14l.35-.13,0-.14-1.31-.35a6.53,6.53,0,0,1,.92,0,1.51,1.51,0,0,1,.63.16.53.53,0,0,1,0,.41,2.67,2.67,0,0,1-.56.28Z"/><path class="cls-1" d="M271.5,70l1.76-.09,0,.25-1.72.1Z"/><path class="cls-1" d="M214.05,76.46h-1.9A1.58,1.58,0,0,1,214.05,76.46Z"/><path class="cls-1" d="M105.09,76.91h1.71v.2h-1.72Z"/><path class="cls-1" d="M299.2,12.77l-1.8-.18C298.11,11.73,298.64,12.46,299.2,12.77Z"/><path class="cls-1" d="M117,77.88h-1.75A1.16,1.16,0,0,1,117,77.88Z"/><path class="cls-1" d="M32,62.56l-1.3.37c0-.26.28-.7,1-.73Z"/><path class="cls-1" d="M297.31,9.35l-.44.47.29.16-.05.18-1-.38V9.65Z"/><path class="cls-1" d="M38.53,38.41l-2.11.26,0-.26A3.48,3.48,0,0,1,38.53,38.41Z"/><path class="cls-1" d="M289,12.67v.05H287l0-.36Z"/><path class="cls-1" d="M294,19.39c-.11.59-.64.83-1.5.65Z"/><path class="cls-1" d="M125.51,6.84l1.74-.12,0,.23-1.73.24Z"/><path class="cls-1" d="M212.19,5.82h2.52v.12h-2.52Z"/><path class="cls-1" d="M146.44,6.5c.4-.16.8-.34,1.21-.47.08,0,.2.15.46.37l-1.66.24Z"/><path class="cls-1" d="M221.35,7.67c0-.19.05-.36.08-.57l1.2.08v.23Z"/><path class="cls-1" d="M174.91,5.93a8.52,8.52,0,0,1,1.21-.29c.09,0,.22.35.35.58L174.91,6Z"/><path class="cls-1" d="M300.52,20.12l-2,.32,0-.31,2-.12Z"/><path class="cls-1" d="M317.39,64.92l-1.92.75-.07-.27,1.91-.68Z"/><path class="cls-1" d="M36.53,68.72l1.3.17,0,.22a6.75,6.75,0,0,1-1,0c-.16,0-.31-.18-.46-.28Z"/><path class="cls-1" d="M104.25,77.42l-1.15.28,0-.11.42-.24-.63-.13,0-.19,1.37.18Z"/><path class="cls-1" d="M301.3,15.93l2.09-.8.07.32-2.15.47Z"/><path class="cls-1" d="M133.16,72.93l-1.75-.39,0-.13,1.78.16Z"/><path class="cls-1" d="M318.58,72.43h-2v-.15h2Z"/><path class="cls-1" d="M303.63,17.91l-1.8.75-.07-.23,1.81-.73Z"/><path class="cls-1" d="M318,17.73l-2.17.32,0-.27,2.17-.26Z"/><path class="cls-1" d="M149.9,75.06h1.38v.22h-1.37Z"/><path class="cls-1" d="M292.45,26c0-.31,0-.63.05-.94s.13-.52.2-.79h-.57c.2.88-.12,1.37-1.23,1.75.4.55.92.42,1.38.44a12.39,12.39,0,0,0,1.36-.07l0,.25c-.11.07-.21.2-.32.21l-4.29.2-2.89.16a.43.43,0,0,1-.3-.16c-.46-.57-.46-.58-1.1-.56v-.24l4.64-.27v.22l-3.39.4,0,.25,4.76-.26,0-.19-1-.59.81-.58-.1-.23-.73.06a2.67,2.67,0,0,0,.95-1.45l-.84-.42c2.27-.72,8.24-.59,9.19.22-.17.14-.32.27-.61.54l1.26.22-.64.43,1,.54-.09.19-4.34.4.48-.17v-.22a5.1,5.1,0,0,0-1.11.1,2.48,2.48,0,0,1-1.8-.35c-.05-.06-.16-.12-.2-.09s-.21.16-.22.26C292.81,25.84,292.82,25.84,292.45,26Zm4.9-2.45-1.25.09.83.44-.64.25.48.48.92-.62h-.93Z"/><path class="cls-1" d="M287.23,64.63c0-.31,0-.62-.07-1l2.68-.4-.27.4.09.16c.25-.19.48-.47.76-.54s.52.14.83.23l0-.43.73.45c.36-.08.69-.16,1-.21.64-.11,1.3.14,1.93-.12a5.57,5.57,0,0,0,.67-.42l.53.43-.61.46,0,.11a2.64,2.64,0,0,1,.55-.15,2.94,2.94,0,0,1,.59,0v.2l-3.54.31v.25h1.19v.17l-1.39.16,0,.29.67.08v.2l-4.77.4,0-.47,1.71-.15c-1.53-.59-2.82.89-4.35.68l.5.21,0,.19-1.37-.14c-1.17.64-2.54,0-3.84.24,0-.44.06-.72.09-1h6.62l-.95-.68Z"/><path class="cls-1" d="M317.18,51c-.43.22-1.06,0-1.26.73L316,52l-1.58.35v-.19l-1,.65c-.26-.45-.36-.85-.57-.94a.93.93,0,0,0-1.28.41l1.32-.09c0,.44-.07.83-.15,1.2,0,.12-.19.21-.29.31l-.23-.45-1.48.56.75.19,0,.19-.93.12c0-.33,0-.62-.06-.91s-.1-.49-.17-.85c-.19.42-.29.66-.4.89h-.11l-.05-.63-1-.06-.07-.21c.47-.51,1.31.19,1.79-.28l-.06-.23h-.73c1.91-.43,3.86-.58,5.66-1.78.12.23.24.43.34.63l1-.52Z"/><path class="cls-1" d="M309.85,53.4H310c.05.26.57.47.05.77.1.13.2.34.33.38a2.34,2.34,0,0,0,.65,0l0,.26-2.21.47.08.3H308l0-.13.6-.22c-.16-.29-.32-.56-.47-.82l-.93.61,0,0c0-.49-.21-.36-.43-.22s-.31.14-.63-.19A1.68,1.68,0,0,0,304.5,54a.84.84,0,0,1-.71-.26l.37-.16-.24-.41s.08-.09.11-.09l1.75-.1c.23,0,.57-.29.58.31a1.07,1.07,0,0,0,.45.06,5.56,5.56,0,0,1,1.84-.14C309.05,53.29,309.56,52.71,309.85,53.4Z"/><path class="cls-1" d="M103.56,72.52V72.1h2.82c-.35.54-.68.77-1.25.66-.39-.08-.82.16-1.23.17a7.17,7.17,0,0,1-1.12-.15,1.69,1.69,0,0,0-.55,0c-.2.06-.4.29-.57.26-1.48-.28-3,.29-4.44,0-.68-.11-1.4.1-2.07,0a2.47,2.47,0,0,1-1.25-.85c.83,0,1.66,0,2.49,0A3.92,3.92,0,0,0,98.33,72c.31-.14.75.13,1.13.17l2.65.21Z"/><path class="cls-1" d="M298.28,64.2c0-.22-.11-.44-.17-.7l.66-.14-.53-.33c.05-.08.08-.16.1-.16,1.36.4,2.57-.72,3.91-.55.76.1,1.52.15,2.28.32l-.73.09c.28.17.47.3.66.43v.18l-1.47.11a3.48,3.48,0,0,1,0,.39,1.26,1.26,0,0,0-1.19.35.77.77,0,0,1-.78-.07C299.72,63.17,299.45,63.16,298.28,64.2Z"/><path class="cls-1" d="M127.72,8.51c-.48,0-1-.08-1.44-.09-.8,0-1.62,0-2.42,0-1.19,0-2.37-.17-3.55-.15-.94,0-1.89.25-2.83.29-1.32.05-2.64,0-4,0a3.62,3.62,0,0,1,2.4-.68c1.56.08,3.13,0,4.69.08,1.07,0,2.14.09,3.21.14.89,0,1.78.09,2.68.12.42,0,.86,0,1.29,0C127.73,8.31,127.73,8.41,127.72,8.51Z"/><path class="cls-1" d="M158.72,72.76a13.1,13.1,0,0,0,2,.37,5.77,5.77,0,0,0,1.59-.23c.68-.18,1.33-.39,1.65.69a5.12,5.12,0,0,1-2.88.25.62.62,0,0,0-.33,0C159.71,74.15,159.44,74,158.72,72.76Z"/><path class="cls-1" d="M310.27,61.19c-.1-.38-.19-.67-.29-1l1.54-.33s.06,0,.06,0c.13-.77.77-.7,1.16-1,.66-.56.76,0,1.09.3l-1,1.12.68.19-1.81.64-.11-.22.19-.54-.09-.19Z"/><path class="cls-1" d="M298.87,66.69c1.44-.25,2.88-.5,4.33-.73a1.51,1.51,0,0,1,.54.1v.21l-.73.14v.11l.85.25L304,67a1.49,1.49,0,0,1-.43.19c-1.2.14-2.39.26-3.58.36-.19,0-.39-.14-.67-.25l3.34-.62,0-.15c-.9.11-1.8.24-2.7.31a5,5,0,0,1-1.07-.16Z"/><path class="cls-1" d="M301.67,55.2c0-.26,0-.52-.05-.81,1.33-.7,2.54,0,3.8.3-.49.27-1.19-.47-1.57.68l1.25-.32.07.2a5.75,5.75,0,0,1-1.31.66,7.8,7.8,0,0,1-1.69,0l1.48-.57,0-.25-1.42.29.27-.51-.81.27Z"/><path class="cls-1" d="M256.21,72.46l-2.61.4,0,.27h2.07v.21h-3.89l0-.19.67-.53-3.16-.23v-.07c1.14-.1,2.28-.27,3.42-.26s2.35.17,3.53.27Z"/><path class="cls-1" d="M140.66,7.24l1.39.17,1.43-.49c.13.28.25.57.38.87l-.66.34,0,.17,1.19.09v.1h-2.79l1.24-.28V8c-.86.3-1.6-.53-2.54-.11a4.7,4.7,0,0,1-1.84.05V7.58Z"/><path class="cls-1" d="M258.17,73l3.39.25v.14c-.1.06-.2.17-.3.17l-2.44-.09a5.11,5.11,0,0,0-.55,0c-.26,0-.6.45-.73-.13a.93.93,0,0,1,.78-1.17c.83,0,1.67.1,2.5.19.15,0,.28.25.34.54h-3Z"/><path class="cls-1" d="M308.47,62.49a2.24,2.24,0,0,1-1.73.57c-.61-.29-1.2-.6-1.81-1,1,.37,1.74-.21,2.7-.85l-1.47-.12V61l2.86-.29,0,.1-.68.26.91.23,0,.17-2.21.31v.13l.85.21v.14l-1,.31,0,.12,1.53-.23Z"/><path class="cls-1" d="M102.88,11.16a38.16,38.16,0,0,1-9.06-.22h9.06Z"/><path class="cls-1" d="M299,27.37l.46-.22-.23-.15.05-.17c.45.14.89.31,1.34.41a2,2,0,0,0,.67-.08l0-.24-.92-.06a.94.94,0,0,1,1.48,0l-.62.61,3.08-.62.08.16c-.12.13-.23.32-.36.36a7.19,7.19,0,0,1-2.88.56c-.7-.13-1.11.45-1.8.44.12-.27.18-.4.25-.54l-.57-.26Z"/><path class="cls-1" d="M71.23,69.93c.82-.11,1.64-.28,2.46-.32s1.56,0,2.35,0a40.8,40.8,0,0,1,4.28.26H71.23Z"/><path class="cls-1" d="M301.65,55.17l-1.15.73,1.39.13,0,.14a2.69,2.69,0,0,1-.46.14c-.54.08-1.08.15-1.62.19-.33,0-.64,0-.32-.62l-1.26.16-.06-.26c1.11.17,1.65-1.44,2.86-.88l-.5.14v.16h1.11Z"/><path class="cls-1" d="M275.57,31c-1.61,0-3.28.59-4.84-.44.27-.44,2.47-.64,3.14-.25l-.35.33Z"/><path class="cls-1" d="M299,27.37v.2h-1.63v.23l1.58.17v.16h-2.17l.36-.54s-.08-.11-.09-.1c-.18.11-.44.19-.49.36-.29.86-.27.87-1.13.65l.85-.45-1-.53v-.16l2.31-.19-.32-.14a.72.72,0,0,1,1.21.12C298.51,27.29,298.79,27.3,299,27.37Z"/><path class="cls-1" d="M141.33,9a8.14,8.14,0,0,1-1.51.32c-1.68,0-3.36-.05-5-.08a1.28,1.28,0,0,1-.27-.05V8.93l6.78-.26Z"/><path class="cls-1" d="M290.8,58.47l-1-.17,0-.23,3,.17,0,.22-.76.13,0,.19.87.15c-.28.5-1.54.53-2.9-.09l.73-.13Z"/><path class="cls-1" d="M308.18,66.77A10.34,10.34,0,0,1,307,67c-.81.09-1.62.13-2.44.19-.07,0-.15-.07-.21-.22l2.58-.26v-.11h-2.12l0-.21,1.78-.83,0,.22.77.28c.06.51.44.7.94.71Z"/><path class="cls-1" d="M185.92,73.43l.38.23a11.9,11.9,0,0,1-1.45.31c-.09,0-.3-.3-.3-.47s.16-.58.26-.59c.75,0,1.51,0,2.27.06a4.3,4.3,0,0,1,.84.21l0,.25Z"/><path class="cls-1" d="M167,72.85c.08-.14.14-.39.23-.4a10.06,10.06,0,0,1,1.55-.16,11.69,11.69,0,0,1,2.28.11c-.77.15-1.39.93-2.27.54-.2-.1-.52.18-.79.2s-.81.45-1-.29Z"/><path class="cls-1" d="M169.76,71.29c-1.44.11-2.83.81-4.3.62C166.8,70.8,168.29,71.13,169.76,71.29Z"/><path class="cls-1" d="M306,60.56c1.71-1.16,2.8-1.26,3.79-.75a4.21,4.21,0,0,1-.89.47c-.6.15-1.13.73-1.84.23C306.78,60.33,306.33,60.53,306,60.56Z"/><path class="cls-1" d="M172,72l6.25-.6c.08.2.16.37.29.68H172Z"/><path class="cls-1" d="M298.15,16.28h-6.44V16h6.44Z"/><path class="cls-1" d="M287.11,24.64l-1.68-.16-1.55-.13V24.1a34.13,34.13,0,0,1,3.92.3c.7.13,1.39,0,2.08.08a1.49,1.49,0,0,1-2,.33c-.2-.17-.52-.13-.79-.19Z"/><path class="cls-1" d="M279.61,18.89l2.93-.56.15.31-.56.34.4.3a1.4,1.4,0,0,1-.13.18c0,.05-.1.15-.16.15-.91,0-1.68-.87-2.67-.32C279.58,19.16,279.59,19,279.61,18.89Z"/><path class="cls-1" d="M315.4,58.68l.22.07c-.33.85-.82.31-1.48.2l.78-.42-.66-.45v-.22l2.2-.16,0,.19Z"/><path class="cls-1" d="M311.44,48.31l2.22-.54,0-.24-2.14.17,0-.15c.29-.09.58-.29.84-.25.62.08,1.13.07,1.34-.89a3.14,3.14,0,0,1,.32,1c0,.61-.4.83-.88.89l-1.64.23Z"/><path class="cls-1" d="M41,30.47l5.82-.53,0,.33L41,30.7Z"/><path class="cls-1" d="M262.07,71.66a7,7,0,0,1-4.13-.21h4.12Z"/><path class="cls-1" d="M224.39,8.89l4.19-.46c-.14.35-.27.67-.81.64-1.11-.06-2.23,0-3.35,0Z"/><path class="cls-1" d="M214,8.18v.46l-3.51-.47,0-.38Z"/><path class="cls-1" d="M195.91,8.43h-1.73c.11-.3.19-.53.3-.86l1.71-.46-.49.76-.57-.15,0,.11Z"/><path class="cls-1" d="M194,8.34h-2V8.12l.56-.06V8l-.75-.17A1.58,1.58,0,0,1,194,8.34Z"/><path class="cls-1" d="M290.9,68.6h3.34v.23h-3.36Z"/><path class="cls-1" d="M119.1,9.18l1.14.23v.18h-3.61Z"/><path class="cls-1" d="M287.23,64.62a5.06,5.06,0,0,1-1,.32,14.44,14.44,0,0,1-2.08.14,13.9,13.9,0,0,1-1.67-.22,1.62,1.62,0,0,0,0-.22h4.69Z"/><path class="cls-1" d="M298,57.51l-.42.28.71.48-2.31.17,0-.23,1.55-.15a3.72,3.72,0,0,0-.48-.55,2.26,2.26,0,0,1-.57-.41Z"/><path class="cls-1" d="M276.47,65.26l.77.31-.92.68-.11-.21.27-.15,0-.17a4.37,4.37,0,0,1-.77.2,1.63,1.63,0,0,1-.52-.12,1.7,1.7,0,0,1,.42-.34A5.86,5.86,0,0,1,276.47,65.26Z"/><path class="cls-1" d="M61,69.06l-2.77.23,0-.33A21.51,21.51,0,0,1,61,68.78Z"/><path class="cls-1" d="M230.43,8.51h4.06v.2h-4.08Z"/><path class="cls-1" d="M167,72.85l-.52.11.33.37,0,.19L164,73.13v-.26a4.93,4.93,0,0,0,.54,0c.58,0,1.17-.08,1.75-.1.25,0,.5,0,.75,0Z"/><path class="cls-1" d="M308.47,62.49l.42-.12,0-.15-.79-.07V62l1.86-.35,0,.16-.8.32.06.22.67-.19.06.29c-.51-.09-1,.8-1.5.09Z"/><path class="cls-1" d="M312.49,57.21a3.54,3.54,0,0,1-.28-.69.44.44,0,0,1,.14-.33,1.56,1.56,0,0,1,.66-.13c.17,0,.32.16.61.32Z"/><path class="cls-1" d="M305.71,61a1.94,1.94,0,0,1-2.62.41Z"/><path class="cls-1" d="M314.63,45.11l-1.78.54.46-.8L313,44.6l.05-.12Z"/><path class="cls-1" d="M298.88,66.66a2.74,2.74,0,0,1-3,.41h.59c.22,0,.45,0,.68,0,.59,0,1.18,0,1.43-.79,0,0,.16,0,.25,0,0,.16,0,.33,0,.5Z"/><path class="cls-1" d="M112.6,10.68h-3v-.16h3Z"/><path class="cls-1" d="M71.75,13.33c-.09-.17-.19-.34-.29-.5l2.61.18v.21l-2.35.08Z"/><path class="cls-1" d="M283.56,33.17h4v0l-4,.25Z"/><path class="cls-1" d="M284.57,64.23c.79-.63,1.86-.62,2.18,0Z"/><path class="cls-1" d="M210.68,8.56c-.48,0-.87,0-1.27,0-.09,0-.25-.21-.24-.27a.59.59,0,0,1,.27-.36C210,7.7,210.36,7.89,210.68,8.56Z"/><path class="cls-1" d="M89.92,11.28A6,6,0,0,1,92.79,11l0,.28Z"/><path class="cls-1" d="M303,23.17l-2.77.3,0-.26,2.77-.36Z"/><path class="cls-1" d="M192.56,8.92h-3a9.28,9.28,0,0,1,3-.21Z"/><path class="cls-1" d="M291,31.11H288.2v-.17H291Z"/><path class="cls-1" d="M180.68,7.31l2.42.28C182.25,8.16,181.48,7.48,180.68,7.31Z"/><path class="cls-1" d="M132.89,70.79h3V71h-3Z"/><path class="cls-1" d="M311.35,58.66l-2.23.75-.07-.27,2.22-.81Z"/><path class="cls-1" d="M221,72.2l.51-.31-.55-.26h1.41C222.27,72.44,222,72.56,221,72.2Z"/><path class="cls-1" d="M292,17.25c.89-.44,2.21-.36,2.51.13Z"/><path class="cls-1" d="M287.1,24.62l.64.37h-2.57v-.35h1.94Z"/><path class="cls-1" d="M301.22,29.64h-2.31a4.44,4.44,0,0,1,2.35-.28Z"/><path class="cls-1" d="M314.05,48.94c.05-.24.08-.45.16-.88l1,.64-.07.24Z"/><path class="cls-1" d="M230.43,71.66c.69,0,1.44-.76,2.17.16Z"/><path class="cls-1" d="M142,71h-2.9V70.8H142Z"/><path class="cls-1" d="M134.21,9.21h-3.15V9h3.15Z"/><path class="cls-1" d="M300.62,61.73h1.87V62l-1.87.17Z"/><path class="cls-1" d="M45.72,25,48,24.86A2,2,0,0,1,45.72,25Z"/><path class="cls-1" d="M188,71.73h-2.19v-.21H188Z"/><path class="cls-1" d="M307.17,55l.45.76h-1.43l0-.23,1.05-.51Z"/><path class="cls-1" d="M101.53,71.27l1.59.17C102.43,72.3,102,71.49,101.53,71.27Z"/><path class="cls-1" d="M288.74,29.28l-2.37.16v-.23l2.37-.21Z"/><path class="cls-1" d="M188.53,7.89l1.65-.23,0,.61L188.53,8Z"/><path class="cls-1" d="M188.13,71.07H186v-.15h2.18Z"/><path class="cls-1" d="M294.86,33.55h-1.67v-.2h1.67Z"/><path class="cls-1" d="M297,29l-1,.54-.72-.49,1.74-.2Z"/><path class="cls-1" d="M214,9.11c.67-.37,1.47.44,1.82-.66l.63.66Z"/><path class="cls-1" d="M95.1,69.63l2.27.14v.08H95.1Z"/><path class="cls-1" d="M163.5,8.28l-2.27.21A2.05,2.05,0,0,1,163.5,8.28Z"/><path class="cls-1" d="M315.09,60.39l-1.55.68c.3-.83,1-.69,1.48-.9Z"/><path class="cls-1" d="M286.44,25.49h2.26v.15h-2.27Z"/><path class="cls-1" d="M305.38,25.88,307,26l0,.24-1.63-.11C305.37,26.08,305.38,26,305.38,25.88Z"/><path class="cls-1" d="M300.09,68.13h-1.81C298.67,67.54,298.89,67.53,300.09,68.13Z"/><path class="cls-1" d="M299.25,34.44l-1.75.23,0-.27,1.79-.27Z"/><path class="cls-1" d="M193.23,8.78h2.1v.16h-2.1Z"/><path class="cls-1" d="M307.85,29.39l-1.51.23c0-.12,0-.25,0-.38l1.53-.16Z"/><path class="cls-1" d="M243.7,72.85c-.38-.15-.94.4-1.17-.44C243,72.39,243.49,72.11,243.7,72.85Z"/><path class="cls-1" d="M290.61,69l-1.44-.09V68.7h1.44Z"/><path class="cls-1" d="M305,43.85l-1.48.23-.05-.29,1.45-.3Z"/><path class="cls-1" d="M180.91,71.11l1.25.09v.37l-1.27-.1Z"/><path class="cls-1" d="M139,71.9H137.4l0-.23c.52,0,1.08-.45,1.55.25Z"/><path class="cls-1" d="M210.64,72h2.3v.08l-2.3.15Z"/><path class="cls-1" d="M301.65,30.36l-2.27-.18v-.11h2.27A2.71,2.71,0,0,0,301.65,30.36Z"/><path class="cls-1" d="M171.25,71.08l-1.44-.14,0-.17h1.44Z"/><path class="cls-1" d="M110.64,72.42h1.8v.2h-1.82Z"/><path class="cls-1" d="M297.35,23.57l-.59.64h.93l-.92.62-.48-.48.64-.25-.83-.44Z"/><path class="cls-2" d="M72.77,34.61,66.14,58.77h-9L68.23,24.19h9L88.4,58.77H79.35Z"/><path class="cls-2" d="M99.85,58.77H91.54V24.19h8.31Z"/><path class="cls-2" d="M134.94,42.19a20.45,20.45,0,0,1-1.88,9,14,14,0,0,1-5.33,6,14.85,14.85,0,0,1-7.87,2.1,15.09,15.09,0,0,1-7.84-2,13.93,13.93,0,0,1-5.34-5.81,19.84,19.84,0,0,1-2-8.67v-2a20.54,20.54,0,0,1,1.86-9,13.87,13.87,0,0,1,5.34-6,15.07,15.07,0,0,1,7.93-2.11,14.85,14.85,0,0,1,7.84,2.09A14.08,14.08,0,0,1,133,31.75a19.87,19.87,0,0,1,1.94,8.85Zm-8.48-1.45c0-3.43-.58-6-1.72-7.82a5.51,5.51,0,0,0-4.93-2.68q-6.27,0-6.63,9.41l0,2.54q0,5.09,1.68,7.82a5.53,5.53,0,0,0,5,2.73,5.46,5.46,0,0,0,4.86-2.68q1.71-2.69,1.74-7.73Z"/><path class="cls-2" d="M168.29,58.77H160V30.62H147.53V58.77h-8.34V24.19h29.1Z"/><path class="cls-2" d="M181.81,47V58.77h-8.34V24.19h13.8a16,16,0,0,1,7,1.46A11,11,0,0,1,199,29.8a11.34,11.34,0,0,1,1.67,6.12A10,10,0,0,1,197.07,44q-3.62,3-9.94,3Zm0-6.44h5.46a5.15,5.15,0,0,0,3.7-1.21A4.53,4.53,0,0,0,192.24,36a5.55,5.55,0,0,0-1.31-3.87,4.63,4.63,0,0,0-3.56-1.48h-5.56Z"/><path class="cls-2" d="M220.55,52.31H209.13l-2,6.46h-8.91l12.69-34.58h7.84l12.78,34.58h-9Zm-9.43-6.44h7.44l-3.73-12Z"/><path class="cls-2" d="M251.93,41.38l-7.48,11H257.8v6.39H233.17V55.19l10-14-10-13.47V24.19h24.35v6.43h-12.9l7.31,10.46Z"/><path class="cls-2" d="M290.13,42.19a20.45,20.45,0,0,1-1.87,9,14,14,0,0,1-5.34,6,14.85,14.85,0,0,1-7.87,2.1,15.09,15.09,0,0,1-7.84-2,13.84,13.84,0,0,1-5.33-5.81,19.7,19.7,0,0,1-2-8.67v-2a20.54,20.54,0,0,1,1.86-9,13.89,13.89,0,0,1,5.35-6A15,15,0,0,1,275,23.71a14.85,14.85,0,0,1,7.84,2.09,14.1,14.1,0,0,1,5.36,5.95,19.86,19.86,0,0,1,1.93,8.85Zm-8.48-1.45q0-5.15-1.72-7.82A5.51,5.51,0,0,0,275,30.24q-6.27,0-6.63,9.41l0,2.54q0,5.09,1.69,7.82a5.86,5.86,0,0,0,9.88.05q1.71-2.69,1.73-7.73Z"/></svg>