<svg id="Layer_1" data-name="Layer 1" xmlns="http://www.w3.org/2000/svg" viewBox="0 0 19.64 18.21"><defs><style>.cls-1{fill:#393d3f;}</style></defs><path d="M6.74.21A1.51,1.51,0,0,1,8.8.73l6.67,11.16a1.5,1.5,0,0,1-.52,2l-1.29.77a.48.48,0,0,1-.68-.17,1.5,1.5,0,0,0-2.58,1.54.5.5,0,0,1-.17.69l-1.29.77a1.5,1.5,0,0,1-2-.52L.21,5.86A1.5,1.5,0,0,1,.73,3.81L2,3a.48.48,0,0,1,.68.17A1.5,1.5,0,1,0,5.28,1.67.5.5,0,0,1,5.45,1ZM9.65,3.13l-.86.52.51.85L10.16,4ZM7.59,5.53,8.45,5l-.52-.86-.86.51Zm3.59,6L12,11l-.51-.85-.86.51Zm1.2-1.89.52.86.86-.51-.52-.86ZM6.73,6l-.51-.85-.86.51.51.86Zm2.73,6.52.86-.51-.51-.86L9,11.71ZM5,7.07,4.5,6.21l-.86.52.51.85Zm2.74,6.52.86-.51-.52-.86-.86.51Zm-5-6.35-.85.51.51.86L3.3,8.1Zm2.74,6.52.51.86.86-.52-.51-.85Z"/><path class="cls-1" d="M19.54,5.07a1.5,1.5,0,0,0-.88-1.93l-1.4-.53a.49.49,0,0,0-.64.29,1.5,1.5,0,0,1-2.81-1,.52.52,0,0,0-.3-.65L12.11.68a1.5,1.5,0,0,0-1.93.88L5.61,13.73a1.51,1.51,0,0,0,.88,1.93l1.41.53a.51.51,0,0,0,.64-.3A1.5,1.5,0,0,1,11.35,17a.49.49,0,0,0,.29.64l1.41.53A1.5,1.5,0,0,0,15,17.24Z"/></svg>